<svg xmlns="http://www.w3.org/2000/svg" viewBox="0 0 150 72"><title>haccp-logo</title><path d="M68.67,32a32.52,32.52,0,0,0-6.73-16.23,4.06,4.06,0,0,0-.36-5.25,4,4,0,0,0-5.27-.36A32.92,32.92,0,0,0,40.05,3.42a4,4,0,0,0-7.94,0,32.84,32.84,0,0,0-16.27,6.75,4.07,4.07,0,0,0-5.26.36,4,4,0,0,0-.36,5.25A32.43,32.43,0,0,0,3.49,32,4,4,0,0,0,0,36a4,4,0,0,0,3.46,4,32.53,32.53,0,0,0,6.76,16.2,4,4,0,0,0,5.65,5.64,32.86,32.86,0,0,0,16.24,6.72,4,4,0,0,0,4,3.48,4,4,0,0,0,4-3.48A32.78,32.78,0,0,0,56.28,61.8a4,4,0,0,0,5.66-5.64A32.73,32.73,0,0,0,68.7,40a4,4,0,0,0,3.43-4A4.07,4.07,0,0,0,68.67,32Zm-4.54,4.8a4,4,0,0,0,2.86,3,31,31,0,0,1-6.35,15.21,4,4,0,0,0-4.09.15L45.82,44.49h-2.4L55.32,56.4a4,4,0,0,0-.15,4.08,30.94,30.94,0,0,1-15.24,6.3,4,4,0,0,0-3-2.79V44.46H35.21V64a4,4,0,0,0-3,2.79A31,31,0,0,1,17,60.48a4,4,0,0,0-.15-4.08L28.74,44.49h-2.4L15.6,55.2a4,4,0,0,0-4.08-.15A31.09,31.09,0,0,1,5.17,39.84a4,4,0,0,0,2.83-3h5.17V35.1H8a4,4,0,0,0-2.83-3,30.76,30.76,0,0,1,6.32-15.24,4,4,0,0,0,4.11-.12L26.49,27.66h2.4L16.81,15.57a4,4,0,0,0,.12-4.11A31.25,31.25,0,0,1,32.2,5.13a4.07,4.07,0,0,0,3,2.85V27.66h1.71V8a3.94,3.94,0,0,0,3-2.85,31,31,0,0,1,15.24,6.33,4,4,0,0,0,.12,4.11L43.17,27.63h2.41L56.52,16.77a4,4,0,0,0,4.12.12A30.77,30.77,0,0,1,67,32.1a3.94,3.94,0,0,0-2.83,3H59v1.71h5.14Z" style="fill:#fff"/><path d="M22.82,29.7V42.45H19.51V37.11h-1v5.34H15.18V29.7h3.34v4.56h1V29.7Z" style="fill:#fff"/><path d="M29.89,29.7l1.89,12.75h-3.4l-.18-2.28H27l-.21,2.28h-3.4L25.08,29.7Zm-1.78,8.19c-.18-1.44-.33-3.24-.51-5.34-.33,2.43-.54,4.23-.63,5.34Z" style="fill:#fff"/><path d="M39.84,35.25H36.53V33a3.26,3.26,0,0,0-.12-1.2.48.48,0,0,0-.48-.24c-.27,0-.45.09-.51.3a4.7,4.7,0,0,0-.12,1.26v5.91a3.37,3.37,0,0,0,.12,1.2c.06.18.24.27.51.27a.46.46,0,0,0,.48-.27,4,4,0,0,0,.12-1.32V37.35h3.31v.51a10.32,10.32,0,0,1-.27,2.82,2.88,2.88,0,0,1-1.24,1.44,4.16,4.16,0,0,1-2.37.63,4.88,4.88,0,0,1-2.41-.54,2.62,2.62,0,0,1-1.26-1.47,9.54,9.54,0,0,1-.3-2.82V34.2a17.2,17.2,0,0,1,.09-2.07,2.7,2.7,0,0,1,.57-1.32,3.1,3.1,0,0,1,1.29-1,4.85,4.85,0,0,1,1.93-.36A4.63,4.63,0,0,1,38.3,30a2.8,2.8,0,0,1,1.27,1.41,8.22,8.22,0,0,1,.3,2.64v1.17Z" style="fill:#fff"/><path d="M48.8,35.25H45.46V33a3.26,3.26,0,0,0-.12-1.2.48.48,0,0,0-.48-.24c-.27,0-.45.09-.51.3a4.7,4.7,0,0,0-.12,1.26v5.91a3.37,3.37,0,0,0,.12,1.2c.06.18.24.27.51.27a.46.46,0,0,0,.48-.27,4,4,0,0,0,.12-1.32V37.35H48.8v.51a10.32,10.32,0,0,1-.27,2.82,2.88,2.88,0,0,1-1.24,1.44,4.16,4.16,0,0,1-2.37.63,4.88,4.88,0,0,1-2.41-.54,2.62,2.62,0,0,1-1.26-1.47,9.54,9.54,0,0,1-.3-2.82V34.2A17.2,17.2,0,0,1,41,32.13a2.7,2.7,0,0,1,.57-1.32,3.1,3.1,0,0,1,1.29-1,4.85,4.85,0,0,1,1.93-.36,4.7,4.7,0,0,1,2.43.57,2.8,2.8,0,0,1,1.27,1.41,8.22,8.22,0,0,1,.3,2.64v1.17Z" style="fill:#fff"/><path d="M50,29.7h3.34a7.41,7.41,0,0,1,2.07.21,2.62,2.62,0,0,1,1.08.6,1.88,1.88,0,0,1,.49,1,8.63,8.63,0,0,1,.12,1.77v1.11a5,5,0,0,1-.24,1.77,2,2,0,0,1-.94.87,4.27,4.27,0,0,1-1.77.3h-.9v5.13H49.91V29.7Zm3.31,2.19v3.24h.24a.76.76,0,0,0,.63-.21,1.6,1.6,0,0,0,.18-.93V32.94c0-.45-.06-.72-.21-.84S53.76,31.89,53.31,31.89Z" style="fill:#fff"/><path d="M96.18,34.44H93.81V26.88H87.22v7.56h-2.4V17.34h2.4v7.74h6.59V17.34h2.37Z" style="fill:#fff"/><path d="M107.55,30.12h-5.48l-1.26,4.32H98.38l5.29-17.13H106l5.23,17.13h-2.43Zm-4.94-1.89H107l-2.13-7.47h-.06Z" style="fill:#fff"/><path d="M123.15,29.25l0,.06a5.46,5.46,0,0,1-1.35,4A5.77,5.77,0,0,1,114,33a7,7,0,0,1-1.5-4.74V23.52a7,7,0,0,1,1.5-4.74,5,5,0,0,1,4-1.71,5.16,5.16,0,0,1,3.88,1.38,5.66,5.66,0,0,1,1.38,4l0,.06h-2.25a4.52,4.52,0,0,0-.76-2.76,2.65,2.65,0,0,0-2.22-.9,2.59,2.59,0,0,0-2.29,1.2,6,6,0,0,0-.81,3.39v4.8a5.76,5.76,0,0,0,.84,3.42,2.72,2.72,0,0,0,2.35,1.2A2.59,2.59,0,0,0,120.2,32a4.75,4.75,0,0,0,.73-2.76Z" style="fill:#fff"/><path d="M135.93,29.25l0,.06a5.42,5.42,0,0,1-1.36,4,5.09,5.09,0,0,1-3.81,1.41,5.15,5.15,0,0,1-4-1.68,7,7,0,0,1-1.51-4.74V23.52a7,7,0,0,1,1.51-4.74,5,5,0,0,1,4-1.71,5.13,5.13,0,0,1,3.87,1.38,5.62,5.62,0,0,1,1.39,4l0,.06H133.7a4.46,4.46,0,0,0-.75-2.76,2.65,2.65,0,0,0-2.22-.9,2.58,2.58,0,0,0-2.29,1.2,6,6,0,0,0-.81,3.39v4.8a5.76,5.76,0,0,0,.84,3.42,2.7,2.7,0,0,0,2.35,1.2A2.59,2.59,0,0,0,133,32a4.68,4.68,0,0,0,.72-2.76Z" style="fill:#fff"/><path d="M141,27.69v6.78h-2.41V17.34h5.63a4.94,4.94,0,0,1,3.76,1.44,5.23,5.23,0,0,1,1.35,3.75,5.18,5.18,0,0,1-1.35,3.75,4.92,4.92,0,0,1-3.76,1.41Zm0-1.83h3.25a2.36,2.36,0,0,0,2-1,4.06,4.06,0,0,0,.69-2.4,4.15,4.15,0,0,0-.69-2.43,2.36,2.36,0,0,0-2-1H141Z" style="fill:#fff"/><path d="M93.81,50.13l0,.06a4.85,4.85,0,0,1-1.21,3.48,5.07,5.07,0,0,1-6.88-.24,6.07,6.07,0,0,1-1.33-4.14V45.12A6.06,6.06,0,0,1,85.72,41a4.44,4.44,0,0,1,3.49-1.5,4.5,4.5,0,0,1,3.39,1.2,5,5,0,0,1,1.24,3.51l0,.06h-2a4,4,0,0,0-.66-2.43,2.36,2.36,0,0,0-2-.78,2.32,2.32,0,0,0-2,1.05,5.17,5.17,0,0,0-.72,3v4.2a5.21,5.21,0,0,0,.72,3,2.37,2.37,0,0,0,2,1.05,2.22,2.22,0,0,0,1.89-.75,4.22,4.22,0,0,0,.63-2.43Z" style="fill:#fff"/><path d="M103.79,47.7H98.23v5.4h6.46v1.59H96.12v-15h8.51v1.59h-6.4v4.86h5.56Z" style="fill:#fff"/><path d="M116.57,54.66h-2.08L108.81,43.5l-.06,0V54.66h-2.11v-15h2.11l5.68,11.13.06,0V39.66h2.08Z" style="fill:#fff"/><path d="M127.9,41.25h-3.85V54.66H122V41.25H118.1V39.66h9.8Z" style="fill:#fff"/><path d="M137.37,47.7h-5.56v5.4h6.46v1.59h-8.56v-15h8.5v1.59h-6.4v4.86h5.56Z" style="fill:#fff"/><path d="M142.3,48.21v6.48h-2.1v-15h4.66a4.62,4.62,0,0,1,3.31,1.11A4.16,4.16,0,0,1,149.34,44a3.76,3.76,0,0,1-.54,2,3.67,3.67,0,0,1-1.57,1.38,2.72,2.72,0,0,1,1.63,1.29,4.62,4.62,0,0,1,.51,2.25v1.32a5.85,5.85,0,0,0,.15,1.29,1.73,1.73,0,0,0,.48.93v.24h-2.16a1.65,1.65,0,0,1-.46-1,10.91,10.91,0,0,1-.09-1.44V51a3.05,3.05,0,0,0-.57-2,1.89,1.89,0,0,0-1.56-.72H142.3Zm0-1.59h2.47a2.36,2.36,0,0,0,1.86-.69,2.91,2.91,0,0,0,.6-2,3.09,3.09,0,0,0-.6-2,2.16,2.16,0,0,0-1.77-.72h-2.59v5.37Z" style="fill:#fff"/></svg>