<svg xmlns="http://www.w3.org/2000/svg" viewBox="0 0 150 45"><title>leopard-logo</title><path d="M38,9.44V32.88H52.56V29H42.12V9.44Z" transform="translate(0 0)" style="fill:#fff"/><path d="M67.47,31.37l-1.09-2.71a5.8,5.8,0,0,1-1.76,1,7.09,7.09,0,0,1-2.48.4,4.8,4.8,0,0,1-3-.9,3.77,3.77,0,0,1-1.46-2.61H68.47a5,5,0,0,0,.2-.91c0-.3,0-.7,0-1.17a7.35,7.35,0,0,0-.56-2.85A6.34,6.34,0,0,0,64.39,18a7.27,7.27,0,0,0-2.72-.51,8.3,8.3,0,0,0-3.28.61,7.11,7.11,0,0,0-2.45,1.67,7.56,7.56,0,0,0-1.56,2.51,9,9,0,0,0-.56,3.12,8.34,8.34,0,0,0,.6,3.21A7.43,7.43,0,0,0,56,31.11a6.71,6.71,0,0,0,2.52,1.6,9.33,9.33,0,0,0,3.28.57,10.56,10.56,0,0,0,3.08-.43,7.22,7.22,0,0,0,2.62-1.41ZM61.54,20.72a3.3,3.3,0,0,1,2.55.94A3.14,3.14,0,0,1,65,24H57.63a4.45,4.45,0,0,1,1.23-2.42,3.73,3.73,0,0,1,2.68-.9Z" transform="translate(0 0)" style="fill:#fff"/><path d="M70.74,25.35a8.13,8.13,0,0,0,.6,3.14A7.74,7.74,0,0,0,73,31a7.58,7.58,0,0,0,2.56,1.67,9.62,9.62,0,0,0,6.69,0A7.46,7.46,0,0,0,84.76,31a7.56,7.56,0,0,0,1.63-2.51,8.7,8.7,0,0,0,0-6.3,7.64,7.64,0,0,0-1.66-2.51,7.41,7.41,0,0,0-2.55-1.64,9.5,9.5,0,0,0-6.7,0,7.63,7.63,0,0,0-2.55,1.67,7.79,7.79,0,0,0-1.66,2.51,8.37,8.37,0,0,0-.59,3.15Zm4,.06a5.06,5.06,0,0,1,.3-1.77,3.71,3.71,0,0,1,2.16-2.18,4.17,4.17,0,0,1,1.59-.3,4.24,4.24,0,0,1,1.59.3,3.72,3.72,0,0,1,1.29.87,4,4,0,0,1,.86,1.37,5,5,0,0,1,.3,1.75,4.25,4.25,0,0,1-1.16,3.11,4,4,0,0,1-3,1.17,3.8,3.8,0,0,1-2.88-1.2,4.39,4.39,0,0,1-1.16-3.12Z" transform="translate(0 0)" style="fill:#fff"/><path d="M90.28,17.81V39.58h3.81V32.51a5.7,5.7,0,0,0,1.56.57,8.3,8.3,0,0,0,1.89.2,8.44,8.44,0,0,0,3.25-.6A7.06,7.06,0,0,0,103.27,31a7.31,7.31,0,0,0,1.59-2.61,9.55,9.55,0,0,0,.07-6.3,7.23,7.23,0,0,0-1.39-2.41,6.36,6.36,0,0,0-2.16-1.57,6.74,6.74,0,0,0-2.78-.57,7,7,0,0,0-2.69.5A5.32,5.32,0,0,0,94,19.28V17.84Zm7.13,3.28a3.59,3.59,0,0,1,2.88,1.17,4.45,4.45,0,0,1,1,3A5.36,5.36,0,0,1,101,27a4.42,4.42,0,0,1-.83,1.41,3.84,3.84,0,0,1-1.33.93A4.3,4.3,0,0,1,97,29.7a6.29,6.29,0,0,1-1.66-.2,5.48,5.48,0,0,1-1.45-.7V22.7a5.5,5.5,0,0,1,1.59-1.21,3.93,3.93,0,0,1,1.82-.43Z" transform="translate(0 0)" style="fill:#fff"/><path d="M109,18.88l1,2.81,1.72-.7a6.16,6.16,0,0,1,2.19-.33,2.44,2.44,0,0,1,2.29,1,5.61,5.61,0,0,1,.53,2.91,5.68,5.68,0,0,0-1.46-.7,5.94,5.94,0,0,0-1.89-.3,7.24,7.24,0,0,0-2.12.3,4.81,4.81,0,0,0-1.72.91,4.43,4.43,0,0,0-1.2,1.5,4.91,4.91,0,0,0-.43,2.18,4.44,4.44,0,0,0,1.3,3.42,4.72,4.72,0,0,0,3.34,1.2,6.13,6.13,0,0,0,2.69-.53,4.37,4.37,0,0,0,1.72-1.41v1.74h3.31V23.7a10.48,10.48,0,0,0-.3-2.64,4.58,4.58,0,0,0-1-1.94A4.22,4.22,0,0,0,117,17.91a8.34,8.34,0,0,0-2.78-.4,9.31,9.31,0,0,0-2.88.43A11.65,11.65,0,0,0,109,19Zm4.84,11a2.37,2.37,0,0,1-1.49-.43,1.75,1.75,0,0,1,.1-2.72,3,3,0,0,1,1.65-.43,4,4,0,0,1,2.59.73v1.54a3.8,3.8,0,0,1-1,.94,3.25,3.25,0,0,1-1.85.44Z" transform="translate(0 0)" style="fill:#fff"/><path d="M124.1,17.81V32.88h3.81V22.77a3.49,3.49,0,0,1,.9-1.11,2.39,2.39,0,0,1,1.55-.47,4.61,4.61,0,0,1,1,.1,3.84,3.84,0,0,1,.93.47l1.35-3.62a3.11,3.11,0,0,0-.86-.4,5.57,5.57,0,0,0-1.46-.13,3.72,3.72,0,0,0-2.08.5,5.27,5.27,0,0,0-1.3,1.24V17.88Z" transform="translate(0 0)" style="fill:#fff"/><path d="M146.19,31.31v1.57H150V9.44h-3.81v8.74a6.47,6.47,0,0,0-1.39-.54,7.1,7.1,0,0,0-1.76-.2,8.7,8.7,0,0,0-3.28.6,8,8,0,0,0-2.59,1.68,7.33,7.33,0,0,0-1.69,2.58,9,9,0,0,0-.59,3.28,9.27,9.27,0,0,0,.49,3.11,7.29,7.29,0,0,0,1.4,2.42A6.07,6.07,0,0,0,139,32.68a7.27,7.27,0,0,0,2.89.57,5.71,5.71,0,0,0,2.48-.5,5.8,5.8,0,0,0,1.79-1.31Zm-3.55-1.61a3.74,3.74,0,0,1-1.46-.3,3.69,3.69,0,0,1-1.19-.81,3.62,3.62,0,0,1-.79-1.3,5.17,5.17,0,0,1-.3-1.81,4.58,4.58,0,0,1,.33-1.84,3.79,3.79,0,0,1,.93-1.34,4.25,4.25,0,0,1,1.36-.84,4.17,4.17,0,0,1,1.59-.3,5.54,5.54,0,0,1,2.95.9v6.07a6,6,0,0,1-1.56,1.1,4.33,4.33,0,0,1-2,.44Z" transform="translate(0 0)" style="fill:#fff"/><path d="M105.84,39.79l-2.09,5.12h.6l.61-1.54h2.22l.63,1.54h.63l-2.09-5.12Zm-.64,3,.88-2.17.88,2.17Z" transform="translate(0 0)" style="fill:#fff"/><path d="M111.15,42.32v.58h1.31V44a.92.92,0,0,1-.24.17l-.31.15a2,2,0,0,1-.35.09,2.2,2.2,0,0,1-.36,0,1.86,1.86,0,0,1-.75-.15,1.62,1.62,0,0,1-.59-.4,1.92,1.92,0,0,1-.37-.64,2.16,2.16,0,0,1-.14-.83,2.51,2.51,0,0,1,.13-.84,1.92,1.92,0,0,1,.37-.64,1.67,1.67,0,0,1,.58-.4,1.79,1.79,0,0,1,.75-.15,2.47,2.47,0,0,1,.67.1,1.36,1.36,0,0,1,.52.31l.26-.49a1.94,1.94,0,0,0-.67-.38,2.77,2.77,0,0,0-.87-.12,2.38,2.38,0,0,0-1,.2,2.35,2.35,0,0,0-1.23,1.39,3.13,3.13,0,0,0-.17,1,3.1,3.1,0,0,0,.18,1.08,2.21,2.21,0,0,0,.5.82,2.14,2.14,0,0,0,.78.52,2.78,2.78,0,0,0,1,.19,2.74,2.74,0,0,0,.48,0,4.6,4.6,0,0,0,.5-.13,2.8,2.8,0,0,0,.46-.22,1.68,1.68,0,0,0,.38-.3v-2Z" transform="translate(0 0)" style="fill:#fff"/><path d="M114.17,44.91h.59v-2h.79l1.5,2h.72l-1.62-2.15a1.7,1.7,0,0,0,.39-.18,1.34,1.34,0,0,0,.33-.3,1.46,1.46,0,0,0,.33-1,2.14,2.14,0,0,0-.08-.58,1.32,1.32,0,0,0-.29-.48,1.33,1.33,0,0,0-.53-.33,2.57,2.57,0,0,0-.84-.12h-1.3Zm1.26-4.53a1.65,1.65,0,0,1,.54.07.9.9,0,0,1,.36.21.73.73,0,0,1,.19.3,1.5,1.5,0,0,1,0,.37.88.88,0,0,1-.09.41,1.05,1.05,0,0,1-.25.3,1.07,1.07,0,0,1-.36.2,1.41,1.41,0,0,1-.41.07h-.72V40.42h.69Z" transform="translate(0 0)" style="fill:#fff"/><path d="M118.78,39.82v5.09h.59V39.82Z" transform="translate(0 0)" style="fill:#fff"/><path d="M120.76,42.65v.55h1.66v-.55Z" transform="translate(0 0)" style="fill:#fff"/><path d="M125.79,43.61a.74.74,0,0,1-.08.34.79.79,0,0,1-.21.24,1.28,1.28,0,0,1-.31.15,1.12,1.12,0,0,1-.36,0,1.17,1.17,0,0,1-.32,0,2.19,2.19,0,0,1-.33-.12,1.89,1.89,0,0,1-.3-.19,1,1,0,0,1-.25-.25l-.35.42a1.14,1.14,0,0,0,.26.32,1.36,1.36,0,0,0,.38.24,2.09,2.09,0,0,0,.44.16,2.58,2.58,0,0,0,.46,0,1.89,1.89,0,0,0,.63-.1,1.44,1.44,0,0,0,.5-.28,1.31,1.31,0,0,0,.33-.44,1.13,1.13,0,0,0,.13-.56,1.29,1.29,0,0,0-.18-.71,1.67,1.67,0,0,0-.44-.44,3,3,0,0,0-.56-.29c-.21-.08-.39-.17-.57-.25a1.85,1.85,0,0,1-.44-.32.74.74,0,0,1-.18-.5.72.72,0,0,1,.23-.55.93.93,0,0,1,.64-.2,1.26,1.26,0,0,1,.57.11,1.42,1.42,0,0,1,.44.31l.32-.47a1.39,1.39,0,0,0-.57-.38,2,2,0,0,0-.78-.15,1.71,1.71,0,0,0-.62.11,1.64,1.64,0,0,0-.46.29,1.22,1.22,0,0,0-.29.41,1.27,1.27,0,0,0-.1.52,1.22,1.22,0,0,0,.17.69,1.63,1.63,0,0,0,.44.43,2.73,2.73,0,0,0,.56.3c.2.08.39.17.57.26a1.45,1.45,0,0,1,.43.33.68.68,0,0,1,.18.5Z" transform="translate(0 0)" style="fill:#fff"/><path d="M127.49,39.82v5.09h2.82v-.59h-2.22V42.63H130V42h-1.94V40.4h2.15v-.58Z" transform="translate(0 0)" style="fill:#fff"/><path d="M131.5,44.91h.59v-2h.79l1.5,2h.72l-1.62-2.15a1.7,1.7,0,0,0,.39-.18,1.34,1.34,0,0,0,.33-.3,1.46,1.46,0,0,0,.33-1,2.14,2.14,0,0,0-.08-.58,1.32,1.32,0,0,0-.29-.48,1.33,1.33,0,0,0-.53-.33,2.57,2.57,0,0,0-.84-.12h-1.3Zm1.26-4.53a1.65,1.65,0,0,1,.54.07.9.9,0,0,1,.36.21.73.73,0,0,1,.19.3,1.5,1.5,0,0,1,.05.37.88.88,0,0,1-.09.41,1.05,1.05,0,0,1-.25.3,1.07,1.07,0,0,1-.36.2,1.41,1.41,0,0,1-.41.07h-.72V40.42h.69Z" transform="translate(0 0)" style="fill:#fff"/><path d="M137.51,44.93l2-5.11h-.6L137.31,44l-1.66-4.18H135l2,5.11Z" transform="translate(0 0)" style="fill:#fff"/><path d="M140.42,39.82v5.09H141V39.82Z" transform="translate(0 0)" style="fill:#fff"/><path d="M146.24,44.41,146,44a2,2,0,0,1-.57.32,1.9,1.9,0,0,1-.67.13,1.71,1.71,0,0,1-.77-.16,1.83,1.83,0,0,1-.6-.41,1.68,1.68,0,0,1-.39-.63,2.59,2.59,0,0,1,0-1.65,1.94,1.94,0,0,1,.38-.64,1.6,1.6,0,0,1,.57-.42,1.73,1.73,0,0,1,.73-.15,2.22,2.22,0,0,1,.67.09,1.71,1.71,0,0,1,.53.29l.27-.47a1.81,1.81,0,0,0-.64-.36,2.49,2.49,0,0,0-.85-.13,2.38,2.38,0,0,0-1,.2,2.28,2.28,0,0,0-.76.56,2.53,2.53,0,0,0-.49.83,3.11,3.11,0,0,0-.16,1,3.06,3.06,0,0,0,.18,1.08,2.26,2.26,0,0,0,.5.82,2.3,2.3,0,0,0,.77.53,2.66,2.66,0,0,0,1,.19,2.31,2.31,0,0,0,.46-.05,2.75,2.75,0,0,0,.41-.11,1.84,1.84,0,0,0,.37-.19,1.76,1.76,0,0,0,.3-.24Z" transform="translate(0 0)" style="fill:#fff"/><path d="M147.18,39.82v5.09H150v-.59h-2.23V42.63h1.95V42h-1.95V40.4h2.16v-.58Z" transform="translate(0 0)" style="fill:#fff"/><path d="M21.18.88A3.62,3.62,0,0,0,20,.14a3.28,3.28,0,0,0-2.09.07,3.65,3.65,0,0,1-.82.23c-.57,0-1.94.91-3.13,2.08l-.89.84a12.36,12.36,0,0,1-2.38,1.47,1,1,0,0,0-.44.22,1,1,0,0,1-.43.23A10.6,10.6,0,0,0,7.66,6.41a11.78,11.78,0,0,0-3,3.05c-.08.21-.24.6-.36.87a2.81,2.81,0,0,0-.21.73,21.13,21.13,0,0,1-2.6,4.6c-.09.07-1,1.63-1.28,2.16-.41.84-.16,1.31,1.64,3a8.85,8.85,0,0,1,1.11,1.31,5.19,5.19,0,0,0,.45.58,3.81,3.81,0,0,1,.45.58,5.44,5.44,0,0,0,.34.46,4.1,4.1,0,0,1,.34.46,9.65,9.65,0,0,0,.73.89c.25.26.58.63.74.81A5.37,5.37,0,0,0,7.8,27a3.33,3.33,0,0,0,2.45,0,3.52,3.52,0,0,1,.85-.23,5.91,5.91,0,0,0,2-1.27,4.27,4.27,0,0,1,5.1-.78,1.23,1.23,0,0,0,.45.2,1.13,1.13,0,0,1,.48.3,7.09,7.09,0,0,0,.64.48,2,2,0,0,1,.54.62l.24.44-.36.55c-.1.14-.25.32-.43.53a6.89,6.89,0,0,0-1.2,1.74,7.39,7.39,0,0,0-.5,3.28v.37h15.7V9.69c-2.14-1.46-4.43-2.9-5.44-3.42a10.25,10.25,0,0,1-.9-.52,4.28,4.28,0,0,0-.79-.35,6.59,6.59,0,0,1-.85-.33,3.33,3.33,0,0,0-.84-.26c-.28,0-.74-.15-1-.22s-.66-.16-.84-.19c-.54-.1-.74-.35-.74-.93a2.63,2.63,0,0,0-.22-1,2.55,2.55,0,0,1-.23-.6,1.59,1.59,0,0,0-.33-.56A1.84,1.84,0,0,1,21.18.88ZM10.4,7.1c-.29,1-.55,1.13-1.22.82s-1,.1-1.1.84a1.46,1.46,0,0,0,0,.65c.57.23.81.51.74.87a.6.6,0,0,0,.68.75c.36,0,.84-1.26.85-2.11a1.2,1.2,0,0,1,.34-.87c.31-.37.44-.89.26-1.07A.36.36,0,0,0,10.4,7.1ZM16,8c-.22.22-.16.32.2.32.18,0,.34,0,.34-.09s-.24-.37-.34-.37A.4.4,0,0,0,16,8ZM6.66,9.53c0,.11.06.14.33.12s.39-.11.41-.19-.05-.14-.32-.12S6.69,9.45,6.66,9.53ZM10.47,22a.33.33,0,0,0,.51.25c.26-.22.2-.35-.17-.35C10.62,21.89,10.47,21.94,10.47,22Zm-.73,2.32c-.08.14.16.55.37.64.39.15,1.48-.36,1.33-.62A3.07,3.07,0,0,0,9.74,24.31Zm18.07,7.9h.44c1.63,0,3.69.06,2.95-2.82-.82-3.16-.9-4.75-.67-5.19s0-.51-.61-.83c-1.83-.93-2.26-1.55-1.41-2,.46-.24.52-.22,1.46.43a.57.57,0,0,1,.21.43c0,.24.05.43.74.34-.18-.11.11-.65.3-1,.11-.2.2-.36.16-.37-.24-.05-.51-.8-.51-1.44,0-.47.14-.7.72-1.11.08-.06,0-.33-.13-.69a3.85,3.85,0,0,1-.28-1.84,1.13,1.13,0,0,1,.52-.6c.32-.23.62-.44.38-1-1.21-1.2-1.7-1.88-.59-2.4.37-.17.34-.28-.17-.62-.35-.25-.4-.33-.43-.86-.07-1.28-2.14-2.6-2.25-1.44a.61.61,0,0,1-.38.54c-.36.19-.38.19-.93-.32a.86.86,0,0,0-.3-.2c-.61,0-.67-1.32-.06-1.41.33,0,.3-.35,0-.44a13.72,13.72,0,0,1-1.33-.62,8.59,8.59,0,0,0-1.16-.53A1.34,1.34,0,0,1,24,6c-1.28-.9-2.1-.82-2.62.23-.22.46-.33.65-.28.79s.18.18.45.32c1.06.58,1.26,1.87.28,1.87-.43,0-.49.17-.22.56s.3.55-.16,1.29a1.44,1.44,0,0,0-.32,1.23c.1.9-1,1.66-1.27.87,0-.12-.16-.42-.27-.69a.87.87,0,0,1-.08-.83,1,1,0,0,0,0-.74,1.68,1.68,0,0,1,.08-1.45,2.08,2.08,0,0,0,.2-1.06,5.31,5.31,0,0,1,.07-1,.67.67,0,0,0-.15-.68c-.29-.35-.29-.41.14-1.15.87-1.53.87-2.84,0-3.55a4.76,4.76,0,0,0-2.16,0,7.31,7.31,0,0,0-1.56.81c-.14.1.19.55.56.74s.51.3.25.59a.65.65,0,0,1-1.11-.59c.13-.58,0-.52-1.52,1-.7.66-1,1.69-.44,1.69a.31.31,0,0,1,.3.23c.08.33.72,0,1.54-.88.49-.5,1.76-.75,1.76-.35S17,6,16.77,6a.48.48,0,0,0-.29.77c.16.17.24.18.56.06,1.11-.41,1.66.53.87,1.47-.43.52-.43.53.11.81s.58.57.29,1.14-.5.68-.82.31-.28-.43-.08-1.07c.07-.26.06-.26-.93-.26-1.17,0-1.53-.2-1.27-.7.11-.22.09-.29-.11-.5l-.25-.25-.31.38c-.8,1-1.7.13-1.12-1,.33-.66-1.35-1.33-1.91-.75-.22.21-.16.32.16.32.51,0,.72.3.72,1a1.94,1.94,0,0,0,.18.91c.32.5-.27.84-.88.5-.29-.16-.6.13-.71.67s.33.64,1,.22.88-.35,1.61.65c.25.34.37.42.57.37.55-.14.72,1.09.22,1.6a1.09,1.09,0,0,1-.39.31c-.16,0-.37.5-.43,1s-.07.52-.53.56c-.79.06-1.11-1-.6-2.06.22-.44.22-.69,0-.69s-.9.85-.9,1.14a2.21,2.21,0,0,1-.28.77,1.93,1.93,0,0,0-.28.87c0,.49-.17.68-.58.68-.64,0-.69-.46-.1-1.15s.24-1.61-.43-1.61a.73.73,0,0,1-.59-.59c0-.35-.19-.36-.78,0s-.75.65-.23.92c.25.14.39.15.55.06s.19-.1.26-.09.16.13.36.43c.35.56.37.76.06.93s-.22.22-.19.54,0,.45-.35.65l-.37.23-.24-.25c-.22-.22-.23-.29-.11-.61.18-.5.11-.56-.62-.56s-1,.21-1,.69a.71.71,0,0,1-.34.56.69.69,0,0,0-.34.58c0,.43-.27.68-.51.48s-.22-1.3.17-1.93a2.41,2.41,0,0,0,.34-.71.85.85,0,0,1,.25-.41A3.58,3.58,0,0,0,7,12.09a1,1,0,0,1,.22-.46c.56-.74-.32-1.5-1-.92a.74.74,0,0,0-.3.44,1.1,1.1,0,0,1-.22.48,1,1,0,0,0-.23.43,4,4,0,0,1-.34.84,4.12,4.12,0,0,0-.34.84.82.82,0,0,1-.2.38,46.61,46.61,0,0,0-2.73,4.23c0,.18.27.45.64.64.18.1.37.07.84-.1a3.85,3.85,0,0,1,1.18-.23,1.18,1.18,0,0,0,1.06-.46c1.3-1.2,1.29,0,0,1.4C4.41,20.76,4.29,21.25,4.93,22a5.52,5.52,0,0,1,.47.61c.43.64.81.93,1.21.93a2,2,0,0,1,.89.34,1.77,1.77,0,0,0,1.18.35c.7,0,1.12-.26.76-.47a1.08,1.08,0,0,1-.32-.46,1.24,1.24,0,0,0-1.25-.69c-.45,0-.89-.24-.89-.47s.65-.45,1-.45a1.28,1.28,0,0,0,.66-.23,1.11,1.11,0,0,1,.57-.23c.28,0,.56-.18.56-.37s-.15-.09-.32-.09-.59-.18-.59-.37.53-.55.88-.55a1.48,1.48,0,0,0,.72-.25c.29-.21.44-.24,1-.18A1.41,1.41,0,0,0,13,18.87a.89.89,0,0,1,.51-.21,1,1,0,0,0,.5-.17c.52-.4.66.1.61,2.07l0,1.56h.27a1.09,1.09,0,0,0,.47-.12c.17-.09.33-.06.67.12.56.29.62.29,1,0a4.1,4.1,0,0,1,.75-.39c.54-.19.55-.29.07-.78s-.61-.5-1-.3-.9-.14-.89-.38a3.19,3.19,0,0,1,.43-1.17c.22-.26.38-.24,1,.16a1.76,1.76,0,0,0,1.17.35c1.47,0,2,1.21.77,1.73-.3.13-.33.18-.26.49s0,.38-.24.59-.3.68.3,1c.24.12.44.27.44.33,0,.94,1.78,1.74,2.42,1.09.83-.85.72-1-.65-1-1.07,0-1.54-.18-1.54-.51s.83-.92,1.12-.92c.51,0,.65-.28.28-.61-.57-.49.34-1.69,1.29-1.69,1.24,0,2,1.56,1.17,2.29-.36.3-.4.37-.26.47a1.11,1.11,0,0,0,1.22-.32c1.35-1.65,2.23-1.87,2.88-.73l.21.37-.35.58c-.35.58-.37.8-.07.8,1.42,0,1.47,1.82.07,2.75-1.66,1.09-2.54.5-2.24-1.53.05-.37-.2-.33-.63.11s-.5.68-.19,1.09c1.23,1.6-.77,3.18-2.44,2.1-.43-.27-.67.06-.48.66.28.88-.72,2.35-1.31,2.7l0,0a.92.92,0,0,0-.52.63A1,1,0,0,0,21,31.74c.12-.14.22-.26.33-.26s.26,0,.46.06c.39.07.88.15.91.07.38-1.27,1.16-1.1,1.63-.73a5.66,5.66,0,0,1,.67.89c.17.26.36.13.51,0s.14-.1.18-.06a1.39,1.39,0,0,0,.46.19l.33.12C26.93,32.56,27.46,32.64,27.81,32.21Z" transform="translate(0 0)" style="fill:#fff"/><path d="M24.56,8.05c.33,0,.74-.37.62-.57a1.15,1.15,0,0,0-.62-.12,1.22,1.22,0,0,0-.63.12C23.82,7.68,24.23,8.05,24.56,8.05Zm.79,1.38c-.66.25-.86.19-1.18-.36-.21-.37-.29-.38-.9-.16-1.43.51-1.31,2.89.14,2.89h.64l.06.4c.27,1.65,1.12,1.61,2.52-.12C27.78,10.66,26.91,8.85,25.35,9.43Zm5.07,1.85c.23,0,.1-.24-.25-.46-1-.63-2.72,1.56-2,2.61.16.26.17.31,0,.39a4.16,4.16,0,0,0-.5.39l0,0c-.21.18-.3.26-.39.26s-.13-.06-.25-.15h0c-.34-.26-.56-.13-1.08.64-.28.42-.79.92-.93.92s-.42.66-.42.94c0,.66-.76.87-1.58.45-.42-.22-.48-.22-.79-.06-1.11.59,0,1.9,1.64,1.9a1.16,1.16,0,0,1,1,.35,1,1,0,0,0,1.58-.65A3.77,3.77,0,0,1,26.7,18a3.77,3.77,0,0,0,.34-.85c0-.5.52-.48.82,0a6.87,6.87,0,0,0,.7.89c.35.38.49.61.43.73-.41.93.29,1.45,1.14.85a1.47,1.47,0,0,0,.18-2.11,1.36,1.36,0,0,1-.34-.67,1.62,1.62,0,0,0-.17-.59,5.74,5.74,0,0,1-.51-1.57,1.4,1.4,0,0,0-.34-.63L28.88,14c-.14-.17-.22-.27-.22-.37s.13-.28.46-.63l.12-.13a6.2,6.2,0,0,0,.85-1.11C30.21,11.48,30.36,11.28,30.42,11.28ZM17.57,14c1,.14,1.16-.93.24-1.87a.84.84,0,0,0-1.37.66,1,1,0,0,1-.39.52c-.54.42-.5.48.31.55Zm-2.4-.22s0-.12,0-.18-.28-.17-.28,0S15.09,13.86,15.17,13.78Zm7.12,2.44c.57-.36.52-1-.13-1.9s-1.72,0-1.29.93C21.13,15.82,22,16.41,22.29,16.22ZM16.88,15a4.31,4.31,0,0,1-1.13,0c-.21-.14-.41-.12-.94.07a2.77,2.77,0,0,1-.7.17,1.05,1.05,0,0,0-.71.75c0,.4.36.46.65.12l.28-.34.24.31c.26.33.54.3,1.28-.12.32-.19.37-.18.37.07a.69.69,0,0,0,.22.42c.29.26.29.36,0,.44s-.62.61-.54.83c.3.8,1.65.4,1.65-.5,0-.43.26-.82.55-.82a.74.74,0,0,1,.58.57c0,.41,1.2,1.47,1.51,1.35A3.31,3.31,0,0,0,21,16.89c0-.54-1.39-1.52-2-1.41a.73.73,0,0,1-.74-.23C17.87,15,17.8,15,16.88,15Zm-4.6.64a.42.42,0,0,0,.05-.33c-.1-.16-.19-.14-.51.11a1,1,0,0,1-.55.23c-.46,0-.69.32-.69.94s.06.66.41.39,1.19-.23,1.15.14-.1.33-.37.36c-.48.05-.59.2-.34.48s.48.29.84,0a1.12,1.12,0,0,1,.45-.23c.18,0,.57-.33.57-.48s-.62-.44-.9-.44S12.06,16.08,12.28,15.65Zm-4.4.53C8,16,8,16,7.71,15.8c-.51-.29-.9-.06-.56.33S7.69,16.42,7.88,16.18Zm1.69,0a.23.23,0,0,0,.2-.14c0-.09,0-.15-.2-.15s-.23.06-.2.15A.23.23,0,0,0,9.57,16.18ZM8.45,18.06a.33.33,0,0,0,.2-.2c0-.08,0-.13-.1-.1a.39.39,0,0,0-.2.2C8.32,18.05,8.37,18.09,8.45,18.06Zm1.3,1c.16-.16.17-.23.05-.38-.28-.34-.59,0-.35.4C9.55,19.28,9.59,19.27,9.75,19.1Zm19.59,9.08a1.53,1.53,0,0,0-.36-.69c-.37-.39-.64-.37-.95.06s-.38.38-1.23.16c-.23-.06-.36,0-.7.35l-.41.43v1.12a4,4,0,0,0,.8,2.43c.44.53,1,.6,1.32.16a2.36,2.36,0,0,0,.38-1.35l0-.83.36,0a1,1,0,0,0,.89-1C29.43,28.75,29.37,28.4,29.34,28.18Z" transform="translate(0 0)" style="fill:#fff"/></svg>