<svg xmlns="http://www.w3.org/2000/svg" xmlns:xlink="http://www.w3.org/1999/xlink" viewBox="0 0 280 130"><defs><linearGradient id="a" x1="-4.98" y1="202.11" x2="259.05" y2="86.71" gradientTransform="matrix(1 0 0 -1 0 230)" gradientUnits="userSpaceOnUse"><stop offset="0" stop-color="#191a1e"/><stop offset=".57" stop-color="#00bc68"/></linearGradient><linearGradient id="b" x1="5.02" y1="225" x2="269.05" y2="109.59" xlink:href="#a"/><linearGradient id="c" x1="22.3" y1="264.54" x2="286.34" y2="149.14" xlink:href="#a"/></defs><path fill="#161717" d="M0 0h280v130H0z"/><path d="M32.05 22.49h23l-7.86 40.09h20V22.49h23v84H67.34V82.63H19.65z" fill="url(#a)"/><path d="M100.92 64.5a51.11 51.11 0 013.46-19.57A41.31 41.31 0 01113.44 31a37.45 37.45 0 0112.88-8.4 41 41 0 0129.57 0 36 36 0 0112.88 8.4A40.52 40.52 0 01178 44.93a51.31 51.31 0 013.4 19.57 51.31 51.31 0 01-3.4 19.57A42.11 42.11 0 01168.77 98a38.27 38.27 0 01-12.88 8.4 41 41 0 01-29.57 0 39.92 39.92 0 01-12.88-8.4 43 43 0 01-9.06-13.92 51.11 51.11 0 01-3.46-19.58zm23 0a37.24 37.24 0 001.44 10.92 26.68 26.68 0 003.93 7.69 16.5 16.5 0 005.48 4.56 13.58 13.58 0 0012.64 0 16.43 16.43 0 005.49-4.56 23 23 0 003.93-7.81 34.15 34.15 0 001.55-10.8 34.15 34.15 0 00-1.55-10.8 21.83 21.83 0 00-3.92-7.7 15.92 15.92 0 00-5.49-4.68 13.58 13.58 0 00-12.64 0A16 16 0 00129.3 46a24.86 24.86 0 00-3.93 7.69 36 36 0 00-1.44 10.81z" fill="url(#b)"/><path d="M202.16 22.49h23l-7.87 40.09h20V22.49h23v84h-22.83V82.63h-47.7z" fill="url(#c)"/></svg>