<svg xmlns="http://www.w3.org/2000/svg" viewBox="0 0 276.42 82"><defs><linearGradient id="a" x1="68.57" y1="59.01" x2="-4.26" y2="40.18" gradientTransform="matrix(1 0 0 -1 0 84)" gradientUnits="userSpaceOnUse"><stop offset="0" stop-color="#191a1e"/><stop offset=".57" stop-color="#00bc68"/></linearGradient></defs><path d="M70.1 17.19v42.73h26.75v-7H77.61V17.19zm54.24 40l-2-4.94a10.81 10.81 0 01-3.25 1.75 13.2 13.2 0 01-4.58.73 8.92 8.92 0 01-5.5-1.65 7 7 0 01-2.69-4.76h19.85a7.73 7.73 0 00.37-1.65c.06-.55.06-1.28.06-2.13a13.18 13.18 0 00-1-5.19 11.87 11.87 0 00-2.75-4 12.38 12.38 0 00-4.15-2.56 13.8 13.8 0 00-5-.92 15.61 15.61 0 00-6 1.1 13 13 0 00-4.61 3 13.68 13.68 0 00-2.87 4.58 15.74 15.74 0 00-1 5.68 15.25 15.25 0 001.1 5.86 13.64 13.64 0 003 4.57 12.42 12.42 0 004.68 2.96 17.54 17.54 0 006 1 19.48 19.48 0 005.68-.79 13.7 13.7 0 004.82-2.57zm-10.93-19.43a6.16 6.16 0 014.7 1.71 5.65 5.65 0 011.59 4.27h-13.5a8 8 0 012.26-4.39 6.9 6.9 0 015-1.65zm17 8.43a14.65 14.65 0 001.1 5.73 13.41 13.41 0 007.69 7.63 17.82 17.82 0 0012.34 0 13.05 13.05 0 007.65-7.55 15.47 15.47 0 000-11.47 13.44 13.44 0 00-7.75-7.53 17.82 17.82 0 00-12.34 0 13.81 13.81 0 00-4.7 3 14.16 14.16 0 00-3.06 4.58 14.84 14.84 0 00-1.1 5.74zm7.39.12a9.2 9.2 0 01.55-3.24 6.67 6.67 0 011.58-2.44 6.91 6.91 0 012.39-1.52 8.11 8.11 0 015.86 0 7.18 7.18 0 012.38 1.58 7.07 7.07 0 011.59 2.5 9.1 9.1 0 01.55 3.18 7.66 7.66 0 01-2.18 5.63 7.39 7.39 0 01-5.43 2.14 7 7 0 01-5.32-2.2 7.89 7.89 0 01-2.14-5.67zm28.61-13.86v39.68h7V59.25a11.24 11.24 0 002.87 1 16.73 16.73 0 009.47-.73 13.16 13.16 0 004.58-3.11 13.64 13.64 0 002.93-4.76 17.19 17.19 0 001-5.86 16.56 16.56 0 00-.92-5.62 13.1 13.1 0 00-2.56-4.39 11.64 11.64 0 00-4-2.87 12.55 12.55 0 00-5.13-1 13.33 13.33 0 00-5 .92 9.52 9.52 0 00-3.54 2.32v-2.64zm13.13 6a6.7 6.7 0 015.31 2.14 8 8 0 011.79 5.41 9.42 9.42 0 01-.54 3.24 7.86 7.86 0 01-1.53 2.56 7.19 7.19 0 01-2.44 1.71 8.13 8.13 0 01-3.3.61 11.3 11.3 0 01-3.06-.37 9.58 9.58 0 01-2.68-1.28V41.36a10.22 10.22 0 012.91-2.19 7.39 7.39 0 013.36-.8zm21.29-4l1.77 5.12c1-.42 2.08-.85 3.18-1.28a11.09 11.09 0 014-.61c2.07 0 3.48.61 4.21 1.83a10 10 0 011 5.31 9.93 9.93 0 00-2.69-1.28 10.83 10.83 0 00-3.48-.55 13.29 13.29 0 00-3.91.55 9.33 9.33 0 00-3.17 1.65 8.13 8.13 0 00-2.2 2.74 8.87 8.87 0 00-.8 4 8.1 8.1 0 002.38 6.23 8.79 8.79 0 006.17 2.19 11.33 11.33 0 005-1 8 8 0 003.17-2.57v3.18h6.11V43.19a19.12 19.12 0 00-.55-4.82 8.63 8.63 0 00-1.83-3.54 7.87 7.87 0 00-3.42-2.19 15.67 15.67 0 00-5.13-.74 17.4 17.4 0 00-5.31.8 22.68 22.68 0 00-4.33 1.83zm8.92 20.08a4.48 4.48 0 01-2.75-.8 2.77 2.77 0 01-1.1-2.38 2.83 2.83 0 011.28-2.56 5.55 5.55 0 013.05-.79 7.43 7.43 0 014.77 1.3v2.81a6.9 6.9 0 01-1.83 1.7 6 6 0 01-3.42.8zm19-22v27.39h7V41.49a6.5 6.5 0 011.65-2 4.52 4.52 0 012.87-.85 8.09 8.09 0 011.84.18 6.6 6.6 0 011.7.85l2.51-6.59a5.47 5.47 0 00-1.59-.73 10.14 10.14 0 00-2.69-.24 6.88 6.88 0 00-3.84.91 9.51 9.51 0 00-2.39 2.26v-2.71zm40.7 24.6V60h7V17.19h-7v15.93a11.73 11.73 0 00-2.56-1 12.64 12.64 0 00-3.24-.37 16.2 16.2 0 00-6 1.1 14.76 14.76 0 00-4.77 3 13.27 13.27 0 00-3.11 4.7 16 16 0 00-1.1 6 16.91 16.91 0 00.92 5.68 13.1 13.1 0 002.56 4.39 11.29 11.29 0 004 2.87 13.41 13.41 0 005.31 1 10.28 10.28 0 007.88-3.3zm-6.53-2.93a6.92 6.92 0 01-2.69-.55 7.09 7.09 0 01-2.23-1.54 6.47 6.47 0 01-1.47-2.38 9.3 9.3 0 01-.55-3.3 8.24 8.24 0 01.61-3.36 7.19 7.19 0 011.71-2.44 7.92 7.92 0 012.5-1.52 7.74 7.74 0 012.93-.55 10.29 10.29 0 015.44 1.64v11a10.8 10.8 0 01-2.87 2 8 8 0 01-3.6.79z" fill="#fff"/><path d="M196 72.51h-1l-3.86 9.32h1.11l1.18-2.83h4.09l1.15 2.81h1.17zM193.86 78l1.62-4 1.62 4zM204.82 77.12v1.06h2.43v1.9a1.6 1.6 0 01-.45.32 6 6 0 01-.58.26 3.58 3.58 0 01-.64.18 3.49 3.49 0 01-.65.06 3.55 3.55 0 01-1.4-.26 3.11 3.11 0 01-1.08-.74 3.75 3.75 0 01-.69-1.15 4.21 4.21 0 01-.26-1.53 4.37 4.37 0 01.25-1.52 3.12 3.12 0 01.69-1.16 2.91 2.91 0 011.06-.74 3.46 3.46 0 011.38-.27 4.27 4.27 0 011.23.19 2.46 2.46 0 011 .55l.48-.9a3.74 3.74 0 00-1.24-.67 5.12 5.12 0 00-1.6-.23 4.35 4.35 0 00-1.81.37 4.23 4.23 0 00-2.27 2.51 5.9 5.9 0 00-.3 1.87 5.45 5.45 0 00.32 2 4.07 4.07 0 002.31 2.44 5.06 5.06 0 001.89.34 5.26 5.26 0 00.89-.08 5 5 0 00.92-.24 4.45 4.45 0 00.86-.39 3.34 3.34 0 00.69-.55v-3.56zM214 77.91a2.33 2.33 0 00.72-.32 2.46 2.46 0 00.61-.55 3.27 3.27 0 00.44-.77 2.63 2.63 0 00.17-1 3.45 3.45 0 00-.16-1.06 2.09 2.09 0 00-.52-.87 2.7 2.7 0 00-1-.6 5 5 0 00-1.54-.21h-2.4l.06 9.3h1.1v-3.71h1.46l2.75 3.71H217zm-1.23-.82h-1.32v-3.44h1.27v-.07a3.06 3.06 0 011 .14 1.69 1.69 0 01.65.37 1.33 1.33 0 01.35.55 2.6 2.6 0 01.1.68 1.47 1.47 0 01-.18.74 1.73 1.73 0 01-.46.55 2 2 0 01-.65.36 2.46 2.46 0 01-.76.12zM218.88 72.57H220v9.26h-1.12z" fill="#03c000"/><path fill="#fff" d="M222.54 77.73h3.06v1h-3.06zM231.8 79.46a1.34 1.34 0 01-.14.62 1.24 1.24 0 01-.38.44 2.07 2.07 0 01-.58.28 2.45 2.45 0 01-1.26 0 3 3 0 01-.6-.21 4 4 0 01-.56-.35 2 2 0 01-.46-.46l-.63.77a2 2 0 00.47.59 3.11 3.11 0 00.69.44 4.06 4.06 0 00.83.28 4.54 4.54 0 00.82.14 3.55 3.55 0 001.16-.17 2.55 2.55 0 001.53-1.31 2.17 2.17 0 00.24-1 2.27 2.27 0 00-.34-1.29 2.81 2.81 0 00-.81-.8 4.79 4.79 0 00-1-.53 9.11 9.11 0 01-1-.47 2.73 2.73 0 01-.81-.58 1.23 1.23 0 01-.33-.91 1.26 1.26 0 01.42-1 1.67 1.67 0 011.18-.37 2.65 2.65 0 011 .19 3 3 0 01.81.57l.59-.84a2.82 2.82 0 00-1-.71 4 4 0 00-1.44-.26 3.15 3.15 0 00-1.14.2 2.83 2.83 0 00-.85.51 2.4 2.4 0 00-.54.76 2.36 2.36 0 00-.19.94 2.24 2.24 0 00.32 1.26 3 3 0 00.81.79 5.36 5.36 0 001 .54 10.16 10.16 0 011 .48 3.37 3.37 0 01.81.59 1.29 1.29 0 01.31.92zM234.94 72.57v9.26h5.2v-1.06H236v-3.1h3.6v-1.06H236v-3h4v-1.04h-5.06zM246 77.91a2.39 2.39 0 00.71-.32 2.34 2.34 0 00.62-.55 2.77 2.77 0 00.43-.77 2.63 2.63 0 00.17-1 3.77 3.77 0 00-.15-1.06 2.22 2.22 0 00-.53-.87 2.62 2.62 0 00-1-.6 5 5 0 00-1.53-.21h-2.4v9.3h1.09v-3.71h1.46l2.76 3.71H249zm-1.29-.82h-1.33v-3.44h1.27v-.07a3.06 3.06 0 011 .14 1.73 1.73 0 01.66.37 1.22 1.22 0 01.34.55 2.25 2.25 0 01.11.68 1.59 1.59 0 01-.18.74 1.88 1.88 0 01-.46.55 2.12 2.12 0 01-.66.36 2.4 2.4 0 01-.75.12zM253.41 81.88l3.69-9.31H256l-3 7.62-3-7.62h-1.16l3.78 9.31h.79zM258.77 72.57h1.09v9.26h-1.09zM269.49 80.93l-.44-.85a3.67 3.67 0 01-3.72.54 3.28 3.28 0 01-1.82-1.9 4.6 4.6 0 01-.25-1.51 4.25 4.25 0 01.24-1.5 3.8 3.8 0 01.69-1.16 3.21 3.21 0 011.06-.77 3.41 3.41 0 011.34-.27 4.06 4.06 0 011.25.17 3.16 3.16 0 011 .51l.5-.84a3.64 3.64 0 00-1.18-.67 4.84 4.84 0 00-1.56-.23 4.55 4.55 0 00-1.89.37 4.13 4.13 0 00-1.41 1 4.46 4.46 0 00-.88 1.5 5.88 5.88 0 000 3.84 4.37 4.37 0 00.92 1.5 4.31 4.31 0 001.43 1 4.89 4.89 0 001.85.34 3.83 3.83 0 00.83-.08 3.52 3.52 0 00.77-.21 3.3 3.3 0 001.22-.76zM271.23 72.57v9.26h5.19v-1.06h-4.1v-3.1h3.59v-1.06h-3.59v-3h4v-1.04h-5.09z"/><path d="M18.05 34.12c.23.27.22.39-.08.69s-.37.31-.55 0c-.42-.66.13-1.31.63-.69zm25.1-12.62h1.16l.12.74c.5 3 2.06 2.93 4.64-.22 2.13-2.6.52-5.89-2.35-4.83-1.23.46-1.59.35-2.18-.66-.39-.68-.53-.7-1.66-.3-2.63.93-2.42 5.27.27 5.27zm2.11-6.83c.61 0 1.36-.68 1.15-1a2 2 0 00-1.15-.23c-.56 0-1.08.1-1.15.23-.22.33.53 1 1.15 1zM17.64 29.49a.41.41 0 00.36-.26c.05-.16-.1-.27-.36-.27s-.42.11-.37.27a.43.43 0 00.37.26zm12.51-4.23c.71.06 1.72.17 2.23.24 1.89.27 2.14-1.68.45-3.4a1.55 1.55 0 00-2.18.22 1.53 1.53 0 00-.35 1 1.84 1.84 0 01-.72.95c-1 .73-.93.86.57.99zm-17 4.14c.44.49 1 .52 1.34.08s.29-.35-.31-.69c-.91-.53-1.63-.1-1 .61zm2.57 3a.7.7 0 00-.36.36c0 .16 0 .24.18.19a.63.63 0 00.36-.37c.1-.19 0-.27-.15-.21zm25.33-2.81c1.05-.66 1-1.91-.24-3.46a1.46 1.46 0 00-2.38 1.69c.57 1 2.11 2.08 2.65 1.74zm21.08-11.94V60.5H33.2v-.67a13.37 13.37 0 01.92-6 12.89 12.89 0 012.21-3.17 11 11 0 00.8-1l.67-1-.44-.8a3.65 3.65 0 00-1-1.14 10 10 0 01-1.18-.87 2.2 2.2 0 00-.89-.54 2.33 2.33 0 01-.82-.37c-2.61-1.74-7.12-1-9.41 1.43a10.85 10.85 0 01-3.6 2.3 7.23 7.23 0 00-1.58.42 6.26 6.26 0 01-4.51 0c-2.16-1-2.84-1.36-3.36-1.93l-1.37-1.45a16 16 0 01-1.34-1.62c-.28-.4-.57-.78-.63-.84a6.86 6.86 0 01-.67-.84 8 8 0 00-.83-1 7.29 7.29 0 01-.84-1 14.33 14.33 0 00-2-2.39C0 34.86-.45 34 .32 32.47a43.48 43.48 0 012.36-3.93c.81-.6 4.78-7.57 4.78-8.39a4.69 4.69 0 01.4-1.32c.22-.49.51-1.21.65-1.6.39-1.06 3.83-4.46 5.61-5.55a18.25 18.25 0 014-2 2 2 0 00.78-.42 2 2 0 01.82-.42 21.64 21.64 0 004.39-2.67c.37-.32 1.1-1 1.64-1.53C27.92 2.46 30.44.8 31.5.8A7.12 7.12 0 0033 .38a6.18 6.18 0 013.85-.13A6.54 6.54 0 0139 1.61a3.88 3.88 0 00.62.88 2.75 2.75 0 01.62 1 4.46 4.46 0 00.42 1.1 4.57 4.57 0 01.41 1.74A1.45 1.45 0 0042.28 8h.17c.35.06 1 .22 1.56.35s1.36.31 1.87.39a7 7 0 011.56.48 13.8 13.8 0 001.55.6 7 7 0 011.46.64 18.12 18.12 0 001.66.94c1.89.97 6.08 3.6 10.02 6.25zm-47.22-.51c1.06.43 1.49.93 1.37 1.59a1.09 1.09 0 00.72 1.35 1.2 1.2 0 00.5 0c.65-.08 1.54-2.3 1.55-3.85a2.26 2.26 0 01.63-1.58c.58-.68.81-1.63.49-2a.69.69 0 00-1 .17.21.21 0 000 .06c-.53 1.74-1 2.06-2.26 1.49-1-.47-1.9.19-2 1.54a2.48 2.48 0 000 1.23zm-2 .44a.87.87 0 00.77-.35c.05-.16-.1-.26-.59-.21s-.72.2-.77.35.06.26.55.21zm8.21 26.76a5.74 5.74 0 00-3.13 0c-.15.24.3 1 .69 1.16.66.23 2.69-.7 2.4-1.16zm-.85-3.82c.48-.4.37-.63-.31-.63-.34 0-.62.08-.62.19a.62.62 0 00.89.44zm38.84-14.08C56.89 24.25 56 23 58 22.07c.67-.31.62-.51-.31-1.14-.66-.44-.74-.6-.79-1.57-.14-2.32-4-4.72-4.16-2.61a1.11 1.11 0 01-.69 1c-.66.34-.7.33-1.72-.6a1.46 1.46 0 00-.55-.36c-1.12 0-1.23-2.41-.12-2.57.61-.09.56-.63-.07-.8a24.42 24.42 0 01-2.44-1.12 15.53 15.53 0 00-2.15-1 2.1 2.1 0 01-.78-.38c-2.36-1.63-3.87-1.5-4.83.42-.42.84-.61 1.19-.52 1.44s.34.33.82.58c2 1.06 2.33 3.41.53 3.41-.79 0-.91.31-.41 1s.55 1-.29 2.34A2.56 2.56 0 0039 22.4c.18 1.63-1.9 3-2.34 1.57-.06-.2-.29-.76-.5-1.24a1.59 1.59 0 01-.16-1.52 1.65 1.65 0 000-1.34 3 3 0 01.16-2.65 4.05 4.05 0 00.37-1.94 10.73 10.73 0 01.11-1.88 1.18 1.18 0 00-.26-1.24c-.55-.64-.53-.75.25-2.11 1.61-2.79 1.6-5.17 0-6.46-.37-.29-2.66-.24-4 .08a13.68 13.68 0 00-2.88 1.46c-.26.2.35 1 1 1.36.92.47.95.54.48 1.07a1.19 1.19 0 01-2.05-1.07c.23-1 .05-.94-2.81 1.74-1.29 1.22-1.78 3.08-.81 3.08a.56.56 0 01.55.42c.16.61 1.32 0 2.85-1.59.89-.91 3.23-1.38 3.23-.64 0 .47-.83 1.39-1.26 1.39a.87.87 0 00-.72 1 .89.89 0 00.18.41c.29.3.45.31 1 .1 2-.75 3 1 1.59 2.68-.79.94-.78 1 .21 1.48s1.07 1 .53 2.07-.92 1.25-1.51.56-.51-.78-.15-1.95c.14-.47.11-.47-1.72-.47-2.15 0-2.82-.37-2.34-1.27.21-.4.18-.54-.2-.91l-.45-.45-.58.68c-1.46 1.76-3.13.23-2.06-1.89.61-1.21-2.49-2.42-3.52-1.38-.4.4-.3.59.3.59.93 0 1.32.55 1.32 1.83a3.46 3.46 0 00.33 1.65c.6.92-.49 1.53-1.62.91-.54-.29-1.1.24-1.3 1.23s.61 1.16 1.76.4 1.62-.65 3 1.18c.46.62.68.76 1.05.67 1-.26 1.33 2 .41 2.93a2.16 2.16 0 01-.72.55c-.29 0-.68.91-.8 1.89s-.12.95-1 1c-1.45.11-2-1.9-1.1-3.76.4-.79.4-1.24 0-1.24s-1.67 1.54-1.68 2.07a3.53 3.53 0 01-.51 1.4 3.83 3.83 0 00-.52 1.58c0 .9-.31 1.25-1.06 1.25-1.18 0-1.26-.84-.19-2.1s.45-2.94-.79-2.94A1.34 1.34 0 0117 21.59c0-.63-.35-.65-1.44-.09-1.24.63-1.38 1.19-.43 1.69.46.24.74.27 1 .11s.35-.2.46-.18.3.24.67.8c.65 1 .68 1.38.12 1.69-.33.17-.41.4-.36 1s0 .81-.64 1.18l-.69.41-.44-.45c-.39-.39-.42-.52-.2-1.11.34-.9.21-1-1.14-1S12 26 12 26.86a1.26 1.26 0 01-.63 1 1.27 1.27 0 00-.62 1.06c0 .78-.49 1.23-.93.86s-.41-2.35.31-3.5a4.68 4.68 0 00.65-1.28 1.45 1.45 0 01.47-.76A6.51 6.51 0 0012.86 22a2 2 0 01.41-.84c1-1.34-.6-2.74-1.94-1.67a1.43 1.43 0 00-.55.79 2.22 2.22 0 01-.41.88A1.83 1.83 0 0010 22a8.4 8.4 0 01-.63 1.52A7.9 7.9 0 008.7 25a1.42 1.42 0 01-.38.7 86.81 86.81 0 00-5 7.71c0 .32.49.81 1.16 1.16.34.18.69.14 1.56-.18A7.16 7.16 0 018.19 34a2.24 2.24 0 002-.84c2.39-2.19 2.36 0 0 2.54-2 2.12-2.22 3-1 4.32.19.21.58.72.86 1.12.79 1.15 1.49 1.68 2.23 1.68a3.91 3.91 0 011.65.63 3.27 3.27 0 002.16.63c1.29 0 2.07-.47 1.4-.85a2 2 0 01-.59-.83 2.3 2.3 0 00-2.31-1.26c-.81 0-1.63-.43-1.63-.87s1.2-.81 1.91-.81a2.26 2.26 0 001.2-.42 2.17 2.17 0 011-.42c.52 0 1-.34 1-.67 0-.09-.26-.17-.58-.17-.56 0-1.08-.32-1.08-.66s1-1 1.62-1a2.65 2.65 0 001.33-.45c.53-.38.81-.43 1.92-.33a2.6 2.6 0 002.7-1 1.67 1.67 0 01.93-.38 2 2 0 00.94-.31c.94-.73 1.21.18 1.12 3.77l-.07 2.85h.48a2.27 2.27 0 00.88-.21c.3-.17.6-.12 1.22.21 1 .53 1.15.53 1.93 0a7.16 7.16 0 011.37-.72c1-.34 1-.53.13-1.43s-1.11-.9-1.77-.54c-.46.24-1.65-.26-1.64-.7a6 6 0 01.8-2.12c.4-.48.7-.43 1.82.29a3.27 3.27 0 002.16.63c2.7 0 3.69 2.21 1.42 3.16-.55.23-.6.33-.48.89s0 .7-.44 1.08c-.74.61-.55 1.24.54 1.81.45.23.82.51.82.62 0 1.71 3.28 3.16 4.46 2 1.53-1.55 1.33-1.85-1.2-1.89-2 0-2.85-.32-2.85-.93 0-.43 1.54-1.67 2.08-1.67.94 0 1.19-.52.51-1.11-1-.91.63-3.09 2.38-3.09 2.28 0 3.74 2.85 2.15 4.18-.65.54-.73.68-.47.86a2 2 0 002.22-.59c2.48-3 4.11-3.41 5.31-1.33l.39.68-.65 1.06c-.64 1-.68 1.44-.12 1.44 2.62 0 2.7 3.33.11 5-3.05 2-4.66.91-4.12-2.79.1-.68-.37-.59-1.16.2s-.92 1.24-.34 2c2.25 2.91-1.42 5.8-4.5 3.84-.8-.51-1.24.1-.89 1.19.53 1.61-1.33 4.28-2.4 4.93H37a1.67 1.67 0 00-1 1.15 1.84 1.84 0 002.54-.37 1.37 1.37 0 00.13-.2c.22-.26.4-.48.61-.48a6.07 6.07 0 01.84.12c.73.12 1.63.28 1.68.12.69-2.31 2.14-2 3-1.33a10.86 10.86 0 011.2 1.62c.32.48.67.23.93 0s.26-.19.33-.12a2.88 2.88 0 00.85.35 6.32 6.32 0 01.61.22 7.32 7.32 0 01-1.39-4.3v-2.09l.77-.77c.62-.63.86-.75 1.3-.64 1.56.4 1.76.38 2.25-.29a1 1 0 011.76-.12 2.77 2.77 0 01.65 1.26l.25 1.42a1.77 1.77 0 01-1.65 1.87l-.65.07v1.5a4.17 4.17 0 01-.71 2.47.75.75 0 01-.15.16l.15-.15h.81c3 0 6.81.11 5.44-5.15-1.5-5.75-1.65-8.66-1.23-9.46.3-.56 0-.92-1.13-1.5-3.36-1.7-4.16-2.83-2.59-3.65.84-.44 1-.41 2.68.79a1 1 0 01.4.78c0 .43.09.78 1.37.62-.34-.21.18-1.18.55-1.86.2-.37.35-.66.28-.67-.44-.09-.93-1.47-.93-2.63 0-.86.26-1.28 1.32-2 .15-.11 0-.59-.23-1.24a6.67 6.67 0 01-.51-3.36 2 2 0 011-1.1c.48-.43 1-.82.59-1.82zM29.89 15.09c.34 0 .62-.07.62-.16s-.44-.68-.62-.68a.84.84 0 00-.38.26c-.4.4-.29.58.38.58zm25.33 15.6a2.9 2.9 0 00-.3-1.08 10.56 10.56 0 01-.92-2.85 2.73 2.73 0 00-.62-1.16l-.14-.15c-.25-.3-.4-.48-.41-.66s.24-.52.85-1.16l.23-.24a12.08 12.08 0 001.56-2c.22-.45.5-.81.61-.81.42 0 .18-.45-.47-.85-1.86-1.14-5 2.84-3.75 4.77.3.46.3.56 0 .71a7 7 0 00-.92.71c-.39.34-.56.49-.72.48s-.25-.1-.47-.26c-.63-.48-1-.25-2 1.16-.52.75-1.45 1.7-1.75 1.7s-.78 1.19-.78 1.71c0 1.2-1.41 1.59-2.92.81-.76-.39-.87-.4-1.44-.1-2.06 1.08 0 3.45 3 3.46a2.15 2.15 0 011.76.64 1.82 1.82 0 002.56-.36 1.88 1.88 0 00.35-.82 6.7 6.7 0 01.62-1.55 7.2 7.2 0 00.63-1.55c0-.91 1-.87 1.51.06a12.47 12.47 0 001.29 1.61c.65.69.9 1.11.8 1.34-.76 1.68.54 2.64 2.09 1.54a2.64 2.64 0 00.43-3.72l-.1-.07a2.7 2.7 0 01-.58-1.31zM28 25.11c.06-.06.05-.21 0-.34s-.52-.29-.52 0 .32.49.52.34zm6.92 3.09a1.3 1.3 0 01-1.37-.41c-.57-.51-.7-.54-2.4-.45a6.75 6.75 0 01-2.15-.08c-.39-.25-.77-.22-1.74.13a5 5 0 01-1.26.31 1.94 1.94 0 00-1.31 1.37c0 .72.66.84 1.19.21l.52-.61.44.56c.47.59 1 .54 2.35-.22.6-.34.69-.33.69.13a1.27 1.27 0 00.41.77c.52.47.53.66 0 .79s-1.14 1.11-1 1.51c.55 1.47 3 .74 3-.9 0-.78.48-1.51 1-1.51a1.36 1.36 0 011.08 1.05c0 .74 2.2 2.68 2.79 2.45a6 6 0 001.36-2.52c.09-1-2.52-2.78-3.65-2.58zm-12 2.44c-.49 0-.62-1.34-.21-2.11a.76.76 0 00.09-.62c-.18-.29-.34-.25-.93.21a2 2 0 01-1 .42c-.85 0-1.27.58-1.27 1.72s.11 1.19.74.71c.78-.6 2.21-.42 2.13.25 0 .47-.18.59-.69.65-.88.1-1.07.37-.62.87s.89.53 1.56 0a1.8 1.8 0 01.81-.42c.33 0 1.06-.6 1.06-.87s-1.25-.81-1.75-.81z" fill="url(#a)"/></svg>