<svg xmlns="http://www.w3.org/2000/svg" viewBox="0 0 276.42 82"><defs><linearGradient id="a" x1="68.57" y1="25" x2="-4.26" y2="43.83" gradientUnits="userSpaceOnUse"><stop offset="0" stop-color="#191a1e"/><stop offset=".57" stop-color="#00bc68"/></linearGradient></defs><path d="M70.1 17.19v42.73h26.75v-7H77.61V17.19zM124.34 57.17l-2-4.94a10.72 10.72 0 0 1-3.25 1.77 13.34 13.34 0 0 1-4.58.73 8.92 8.92 0 0 1-5.5-1.65 7 7 0 0 1-2.69-4.76h19.85a7.54 7.54 0 0 0 .37-1.65c.06-.55.06-1.28.06-2.13a13.17 13.17 0 0 0-1-5.19 11.78 11.78 0 0 0-2.75-4 12.45 12.45 0 0 0-4.15-2.56 13.79 13.79 0 0 0-5-.92 15.71 15.71 0 0 0-6 1.1 13.12 13.12 0 0 0-4.61 3.03 13.54 13.54 0 0 0-2.87 4.58 15.91 15.91 0 0 0-1 5.68 15.25 15.25 0 0 0 1.1 5.86 13.78 13.78 0 0 0 3 4.57 12.42 12.42 0 0 0 4.64 2.93 17.49 17.49 0 0 0 6 1 19.64 19.64 0 0 0 5.68-.79 13.57 13.57 0 0 0 4.82-2.57zm-10.93-19.41a6.19 6.19 0 0 1 4.7 1.71 5.65 5.65 0 0 1 1.59 4.27h-13.5a8 8 0 0 1 2.26-4.39 6.92 6.92 0 0 1 5-1.65zM130.37 46.19a14.63 14.63 0 0 0 1.1 5.73 13.38 13.38 0 0 0 7.69 7.63 17.85 17.85 0 0 0 12.34 0 13.06 13.06 0 0 0 7.69-7.55 15.5 15.5 0 0 0 0-11.47 14 14 0 0 0-3.05-4.58 13.76 13.76 0 0 0-4.7-3 17.85 17.85 0 0 0-12.34 0 13.89 13.89 0 0 0-4.7 3.05 14.15 14.15 0 0 0-3.06 4.58 14.82 14.82 0 0 0-1.1 5.74zm7.39.12a9.18 9.18 0 0 1 .55-3.24 6.73 6.73 0 0 1 1.58-2.44 6.92 6.92 0 0 1 2.39-1.52 8.08 8.08 0 0 1 5.86 0 7 7 0 0 1 2.38 1.58 7.14 7.14 0 0 1 1.59 2.5 9.07 9.07 0 0 1 .55 3.18 7.65 7.65 0 0 1-2.14 5.63 7.39 7.39 0 0 1-5.43 2.14 7.05 7.05 0 0 1-5.32-2.2 7.88 7.88 0 0 1-2.14-5.67zM166.37 32.45v39.68h7V59.25a11.46 11.46 0 0 0 2.87 1 16.75 16.75 0 0 0 9.47-.73 13.24 13.24 0 0 0 4.58-3.11 13.56 13.56 0 0 0 2.93-4.76 17 17 0 0 0 1-5.86 16.69 16.69 0 0 0-.92-5.62 13 13 0 0 0-2.56-4.39 11.69 11.69 0 0 0-4-2.87 12.67 12.67 0 0 0-5.13-1 13.25 13.25 0 0 0-4.95.92 9.52 9.52 0 0 0-3.54 2.32v-2.64zm13.13 6a6.69 6.69 0 0 1 5.31 2.14 8 8 0 0 1 1.83 5.41 9.41 9.41 0 0 1-.54 3.24 7.86 7.86 0 0 1-1.53 2.56 7.16 7.16 0 0 1-2.44 1.71 8.13 8.13 0 0 1-3.3.61 11.15 11.15 0 0 1-3.06-.37 9.58 9.58 0 0 1-2.68-1.28V41.36a10.26 10.26 0 0 1 2.91-2.19 7.35 7.35 0 0 1 3.36-.8zM200.79 34.41l1.77 5.12c1-.42 2.08-.85 3.18-1.28a11.14 11.14 0 0 1 4-.61c2.07 0 3.48.61 4.21 1.83a10 10 0 0 1 1 5.31 10.08 10.08 0 0 0-2.69-1.28 10.84 10.84 0 0 0-3.48-.55 13.29 13.29 0 0 0-3.91.55 9.29 9.29 0 0 0-3.17 1.65 8.1 8.1 0 0 0-2.2 2.74 8.88 8.88 0 0 0-.8 4 8.09 8.09 0 0 0 2.38 6.23 8.8 8.8 0 0 0 6.17 2.19 11.42 11.42 0 0 0 5-1 7.94 7.94 0 0 0 3.17-2.57v3.18h6.11V43.19a18.91 18.91 0 0 0-.55-4.82 8.66 8.66 0 0 0-1.83-3.54 7.87 7.87 0 0 0-3.42-2.19 15.67 15.67 0 0 0-5.13-.74 17.22 17.22 0 0 0-5.31.8 22.74 22.74 0 0 0-4.34 1.83zm8.92 20.08a4.44 4.44 0 0 1-2.75-.8 2.77 2.77 0 0 1-1.1-2.38 2.83 2.83 0 0 1 1.28-2.56 5.53 5.53 0 0 1 3.05-.79A7.47 7.47 0 0 1 215 49.3v2.81a7 7 0 0 1-1.83 1.7 6.05 6.05 0 0 1-3.42.8zM228.69 32.45v27.47h7V41.49a6.66 6.66 0 0 1 1.65-2 4.48 4.48 0 0 1 2.87-.85 7.88 7.88 0 0 1 1.84.18 6.51 6.51 0 0 1 1.7.85l2.51-6.59a5.56 5.56 0 0 0-1.59-.73 10.47 10.47 0 0 0-2.69-.24 6.86 6.86 0 0 0-3.84.91 9.32 9.32 0 0 0-2.39 2.26v-2.71zM269.39 57.05v2.87h7V17.19h-7v15.93a11.69 11.69 0 0 0-2.56-1 12.5 12.5 0 0 0-3.24-.37 16.15 16.15 0 0 0-6 1.1 14.82 14.82 0 0 0-4.77 3 13.18 13.18 0 0 0-3.11 4.7 16.1 16.1 0 0 0-1.1 6 16.79 16.79 0 0 0 .92 5.68 13 13 0 0 0 2.56 4.39 11.28 11.28 0 0 0 4 2.87 13.55 13.55 0 0 0 5.31 1 10.62 10.62 0 0 0 4.59-.92 10.73 10.73 0 0 0 3.29-2.38zm-6.53-2.93a6.78 6.78 0 0 1-2.69-.55 7 7 0 0 1-2.17-1.46 6.55 6.55 0 0 1-1.47-2.38 9.29 9.29 0 0 1-.55-3.3 8.23 8.23 0 0 1 .61-3.36 7.16 7.16 0 0 1 1.71-2.44 8 8 0 0 1 2.5-1.52 7.79 7.79 0 0 1 2.93-.55 10.3 10.3 0 0 1 5.44 1.64v11a11 11 0 0 1-2.87 2 8.1 8.1 0 0 1-3.6.79z" fill="#fff"/><path d="M195 72.51l-3.86 9.32h1.11l1.18-2.83h4.09l1.15 2.81h1.17l-3.84-9.3zM193.86 78l1.62-4 1.62 4zM204.82 77.12v1.06h2.43v1.9a1.72 1.72 0 0 1-.45.32 6.29 6.29 0 0 1-.58.26 3.36 3.36 0 0 1-.64.18 3.57 3.57 0 0 1-.65.06 3.68 3.68 0 0 1-1.4-.26 3.15 3.15 0 0 1-1.08-.74 3.67 3.67 0 0 1-.69-1.15 4.3 4.3 0 0 1-.26-1.53 4.37 4.37 0 0 1 .25-1.52 3.2 3.2 0 0 1 .69-1.16 2.94 2.94 0 0 1 1.06-.74 3.43 3.43 0 0 1 1.38-.27 4.16 4.16 0 0 1 1.23.19 2.51 2.51 0 0 1 1 .55l.48-.9a3.84 3.84 0 0 0-1.24-.67 5 5 0 0 0-1.6-.23 4.25 4.25 0 0 0-1.81.37 4.55 4.55 0 0 0-1.38 1 4.47 4.47 0 0 0-.89 1.51 5.73 5.73 0 0 0-.3 1.87 5.58 5.58 0 0 0 .32 2 4.08 4.08 0 0 0 2.31 2.44 5.13 5.13 0 0 0 1.89.34 5.55 5.55 0 0 0 .89-.08 5.2 5.2 0 0 0 .92-.24 4.8 4.8 0 0 0 .86-.39 3.21 3.21 0 0 0 .69-.55v-3.56zM210.38 81.83h1.1v-3.71h1.46l2.75 3.71H217l-3-3.92a2.41 2.41 0 0 0 .72-.32 2.44 2.44 0 0 0 .61-.55 3.22 3.22 0 0 0 .44-.77 2.55 2.55 0 0 0 .17-1 3.36 3.36 0 0 0-.16-1.06 2.15 2.15 0 0 0-.52-.87 2.68 2.68 0 0 0-1-.6 4.85 4.85 0 0 0-1.54-.21h-2.4zm2.34-8.25a2.9 2.9 0 0 1 1 .14 1.63 1.63 0 0 1 .65.37 1.29 1.29 0 0 1 .35.55 2.54 2.54 0 0 1 .1.68 1.47 1.47 0 0 1-.18.74 1.73 1.73 0 0 1-.46.55 2 2 0 0 1-.65.36 2.46 2.46 0 0 1-.76.12h-1.32v-3.44h1.27zM218.88 72.57v9.26H220v-9.26zM222.54 77.73v1h3.06v-1zM231.8 79.46a1.32 1.32 0 0 1-.14.62 1.23 1.23 0 0 1-.38.44 2.08 2.08 0 0 1-.58.28 2.38 2.38 0 0 1-1.26 0 3.29 3.29 0 0 1-.6-.21 3.71 3.71 0 0 1-.56-.35 2 2 0 0 1-.46-.46l-.63.77a1.89 1.89 0 0 0 .47.59 3.11 3.11 0 0 0 .69.44 4.26 4.26 0 0 0 .83.28 4.14 4.14 0 0 0 .82.14 3.66 3.66 0 0 0 1.16-.17 2.59 2.59 0 0 0 1.53-1.31 2.2 2.2 0 0 0 .24-1 2.29 2.29 0 0 0-.34-1.29 2.69 2.69 0 0 0-.81-.8 4.63 4.63 0 0 0-1-.53 9.43 9.43 0 0 1-1-.47 2.89 2.89 0 0 1-.81-.58 1.24 1.24 0 0 1-.33-.91 1.26 1.26 0 0 1 .42-1 1.67 1.67 0 0 1 1.18-.37 2.57 2.57 0 0 1 1 .19 2.91 2.91 0 0 1 .81.57l.59-.84a2.74 2.74 0 0 0-1-.71 3.93 3.93 0 0 0-1.44-.26 3.13 3.13 0 0 0-1.14.2 2.75 2.75 0 0 0-.85.51 2.4 2.4 0 0 0-.54.76 2.29 2.29 0 0 0-.19.94 2.2 2.2 0 0 0 .32 1.26 3 3 0 0 0 .81.79 5.39 5.39 0 0 0 1 .54 11.18 11.18 0 0 1 1 .48 3.38 3.38 0 0 1 .81.59 1.3 1.3 0 0 1 .31.92zM234.94 72.57v9.26h5.2v-1.06H236v-3.1h3.6v-1.06H236v-3h4v-1.04zM242.32 81.83h1.09v-3.71h1.46l2.76 3.71H249l-3-3.92a2.36 2.36 0 0 0 .71-.32 2.48 2.48 0 0 0 .62-.55 2.89 2.89 0 0 0 .43-.77 2.55 2.55 0 0 0 .17-1 3.67 3.67 0 0 0-.15-1.06 2.18 2.18 0 0 0-.53-.87 2.6 2.6 0 0 0-1-.6 4.79 4.79 0 0 0-1.53-.21h-2.4zm2.33-8.25a2.9 2.9 0 0 1 1 .14 1.75 1.75 0 0 1 .66.37 1.18 1.18 0 0 1 .34.55 2.2 2.2 0 0 1 .11.68 1.59 1.59 0 0 1-.18.74 1.88 1.88 0 0 1-.46.55 2 2 0 0 1-.66.36 2.4 2.4 0 0 1-.75.12h-1.33v-3.44h1.27zM253.41 81.88l3.69-9.31H256l-3 7.62-3-7.62h-1.16l3.78 9.31zM258.77 72.57v9.26h1.09v-9.26zM269.49 80.93l-.44-.85a3.6 3.6 0 0 1-1.05.6 3.63 3.63 0 0 1-1.24.22 3.48 3.48 0 0 1-1.43-.28 3.36 3.36 0 0 1-1.1-.75 3.3 3.3 0 0 1-.72-1.15 4.47 4.47 0 0 1-.25-1.51 4.25 4.25 0 0 1 .24-1.5 3.84 3.84 0 0 1 .69-1.16 3.15 3.15 0 0 1 1.06-.77 3.31 3.31 0 0 1 1.34-.27 3.94 3.94 0 0 1 1.25.17 3.33 3.33 0 0 1 1 .51l.5-.84a3.57 3.57 0 0 0-1.18-.67 5.06 5.06 0 0 0-1.56-.23 4.52 4.52 0 0 0-1.89.37 4.16 4.16 0 0 0-1.41 1 4.31 4.31 0 0 0-.88 1.5 5.92 5.92 0 0 0 0 3.84 4.46 4.46 0 0 0 .92 1.5 4.26 4.26 0 0 0 1.43.95 4.92 4.92 0 0 0 1.85.34 3.83 3.83 0 0 0 .83-.08 4 4 0 0 0 .77-.21 3.28 3.28 0 0 0 1.22-.76zM271.23 72.57v9.26h5.19v-1.06h-4.1v-3.1h3.59v-1.06h-3.59v-3h4v-1.04z" fill="#00bc68"/><path d="M18.05 34.12c.23.27.22.39-.08.69s-.37.31-.55 0c-.42-.66.13-1.31.63-.69zm25.1-12.62h1.16l.12.74c.5 3 2.06 2.93 4.64-.22 2.13-2.6.52-5.89-2.35-4.83-1.23.46-1.59.35-2.18-.66-.39-.68-.53-.7-1.66-.3-2.63.93-2.42 5.27.27 5.27zm2.11-6.83c.61 0 1.36-.68 1.15-1a2 2 0 0 0-1.15-.23c-.56 0-1.08.1-1.15.23-.22.33.53 1 1.15 1zM17.64 29.49a.41.41 0 0 0 .36-.26c.05-.16-.1-.27-.36-.27s-.42.11-.37.27a.42.42 0 0 0 .37.26zm12.51-4.23c.71.06 1.72.17 2.23.24 1.89.27 2.14-1.68.45-3.4a1.55 1.55 0 0 0-2.53 1.2 1.81 1.81 0 0 1-.72.95c-1 .75-.93.88.57 1.01zm-17 4.14c.44.49 1 .52 1.34.08s.29-.35-.31-.69c-.91-.53-1.63-.1-1 .61zm2.57 3a.64.64 0 0 0-.36.36c-.05.16 0 .24.18.19a.65.65 0 0 0 .36-.37c.1-.19.01-.27-.15-.21zm25.33-2.81c1.05-.66 1-1.91-.24-3.46a1.46 1.46 0 0 0-2.38 1.69c.57 1.01 2.11 2.08 2.65 1.74zm21.08-11.94V60.5H33.2v-.67a13.41 13.41 0 0 1 .92-6 13 13 0 0 1 2.21-3.17 11 11 0 0 0 .8-1l.67-1-.44-.8a3.68 3.68 0 0 0-1-1.14 9.82 9.82 0 0 1-1.18-.87 2.2 2.2 0 0 0-.89-.54 2.33 2.33 0 0 1-.82-.37c-2.61-1.74-7.12-1.05-9.41 1.43a10.86 10.86 0 0 1-3.6 2.3 6.9 6.9 0 0 0-1.58.42 6.3 6.3 0 0 1-4.51 0c-2.16-1-2.84-1.36-3.36-1.93l-1.37-1.45a15.62 15.62 0 0 1-1.34-1.62c-.28-.4-.57-.78-.63-.84a7 7 0 0 1-.67-.84 8 8 0 0 0-.83-1 8.24 8.24 0 0 1-.84-1 14.59 14.59 0 0 0-2-2.39C0 34.86-.45 34 .32 32.47a43.41 43.41 0 0 1 2.36-3.93c.81-.6 4.78-7.57 4.78-8.39a4.58 4.58 0 0 1 .4-1.32c.22-.49.51-1.21.65-1.6.39-1.06 3.83-4.46 5.61-5.55a18.52 18.52 0 0 1 4-2 2 2 0 0 0 .78-.42 2 2 0 0 1 .82-.42 21.7 21.7 0 0 0 4.39-2.67c.37-.32 1.1-1 1.64-1.53C27.92 2.46 30.44.8 31.5.8A7.12 7.12 0 0 0 33 .38a6.16 6.16 0 0 1 3.85-.13A6.77 6.77 0 0 1 39 1.61a4 4 0 0 0 .62.88 2.79 2.79 0 0 1 .62 1 4.2 4.2 0 0 0 .42 1.1 4.57 4.57 0 0 1 .41 1.74A1.45 1.45 0 0 0 42.45 8c.35.06 1 .22 1.56.35s1.36.31 1.87.39a6.68 6.68 0 0 1 1.56.48 13 13 0 0 0 1.55.6 7 7 0 0 1 1.46.64 17.48 17.48 0 0 0 1.66.94c1.89.97 6.08 3.6 10.02 6.25zm-47.22-.51c1.06.43 1.49.93 1.37 1.59a1.09 1.09 0 0 0 1.25 1.37c.65-.08 1.54-2.3 1.55-3.85a2.25 2.25 0 0 1 .63-1.58c.58-.68.81-1.63.49-2a.69.69 0 0 0-1 .23c-.53 1.74-1 2.06-2.26 1.49-1-.47-1.9.19-2 1.54a2.57 2.57 0 0 0-.03 1.21zm-2 .44c.38 0 .72-.19.77-.35s-.1-.26-.59-.21-.72.2-.77.35.06.26.55.21zm8.21 26.76a5.65 5.65 0 0 0-3.13 0c-.15.24.3 1 .69 1.16.66.23 2.69-.7 2.4-1.16zm-.85-3.82c.48-.4.37-.63-.31-.63-.34 0-.62.08-.62.19a.61.61 0 0 0 .89.44zm38.84-14.08C56.89 24.25 56 23 58 22.07c.67-.31.62-.51-.31-1.14-.66-.44-.74-.6-.79-1.57-.14-2.32-4-4.72-4.16-2.61a1.11 1.11 0 0 1-.69 1c-.66.34-.7.33-1.72-.6a1.5 1.5 0 0 0-.55-.36c-1.12 0-1.23-2.41-.12-2.57.61-.09.56-.63-.07-.8a25.72 25.72 0 0 1-2.44-1.12 15.05 15.05 0 0 0-2.15-1 2.2 2.2 0 0 1-.78-.38c-2.36-1.63-3.87-1.5-4.83.42-.42.84-.61 1.19-.52 1.44s.34.33.82.58c2 1.06 2.33 3.41.53 3.41-.79 0-.91.31-.41 1s.55 1-.29 2.34A2.57 2.57 0 0 0 39 22.4c.18 1.63-1.9 3-2.34 1.57-.06-.2-.29-.76-.5-1.24a1.6 1.6 0 0 1-.16-1.52 1.65 1.65 0 0 0 0-1.34 3 3 0 0 1 .16-2.65 4 4 0 0 0 .37-1.94 10.5 10.5 0 0 1 .11-1.88 1.17 1.17 0 0 0-.26-1.24c-.55-.64-.53-.75.25-2.11 1.61-2.79 1.6-5.17 0-6.46-.37-.29-2.66-.24-4 .08a14 14 0 0 0-2.88 1.46c-.26.2.35 1 1 1.36.92.47.95.54.48 1.07a1.19 1.19 0 0 1-2.05-1.07c.23-1 .05-.94-2.81 1.74-1.29 1.22-1.78 3.08-.81 3.08a.56.56 0 0 1 .55.42c.16.61 1.32 0 2.85-1.59.89-.91 3.23-1.38 3.23-.64 0 .47-.83 1.39-1.26 1.39a.88.88 0 0 0-.54 1.42c.29.3.45.31 1 .1 2-.75 3.05 1 1.59 2.68-.79.94-.78 1 .21 1.48s1.07 1 .53 2.07-.92 1.25-1.51.56-.51-.78-.15-1.95c.14-.47.11-.47-1.72-.47-2.15 0-2.82-.37-2.34-1.27.21-.4.18-.54-.2-.91l-.45-.45-.58.68c-1.46 1.76-3.13.23-2.06-1.89.61-1.21-2.49-2.42-3.52-1.38-.4.4-.3.59.3.59.93 0 1.32.55 1.32 1.83a3.49 3.49 0 0 0 .33 1.65c.6.92-.49 1.53-1.62.91-.54-.29-1.1.24-1.3 1.23s.61 1.16 1.76.4 1.62-.65 3 1.18c.46.62.68.76 1.05.67 1-.26 1.33 2 .41 2.93a2.18 2.18 0 0 1-.72.55c-.29 0-.68.91-.8 1.89s-.12.95-1 1c-1.45.11-2-1.9-1.1-3.76.4-.79.4-1.24 0-1.24s-1.67 1.54-1.68 2.07a3.59 3.59 0 0 1-.51 1.4 3.86 3.86 0 0 0-.52 1.58c0 .9-.31 1.25-1.06 1.25-1.18 0-1.26-.84-.19-2.1s.45-2.94-.79-2.94A1.34 1.34 0 0 1 17 21.59c0-.63-.35-.65-1.44-.09-1.24.63-1.38 1.19-.43 1.69.46.24.74.27 1 .11s.35-.2.46-.18.3.24.67.8c.65 1 .68 1.38.12 1.69-.33.17-.41.4-.36 1s0 .81-.64 1.18l-.69.41-.44-.45c-.39-.39-.42-.52-.2-1.11.34-.9.21-1-1.14-1S12 26 12 26.86a1.27 1.27 0 0 1-.63 1 1.28 1.28 0 0 0-.62 1.06c0 .78-.49 1.23-.93.86s-.41-2.35.31-3.5a4.53 4.53 0 0 0 .65-1.28 1.48 1.48 0 0 1 .47-.76A6.51 6.51 0 0 0 12.86 22a2 2 0 0 1 .41-.84c1-1.34-.6-2.74-1.94-1.67a1.42 1.42 0 0 0-.55.79 2.11 2.11 0 0 1-.41.88A1.85 1.85 0 0 0 10 22a8.47 8.47 0 0 1-.63 1.52A7.73 7.73 0 0 0 8.7 25a1.4 1.4 0 0 1-.38.7 86.59 86.59 0 0 0-5 7.71c0 .32.49.81 1.16 1.16.34.18.69.14 1.56-.18A7.35 7.35 0 0 1 8.19 34a2.24 2.24 0 0 0 2-.84c2.39-2.19 2.36 0 0 2.54-2 2.12-2.22 3-1 4.32.19.21.58.72.86 1.12.79 1.15 1.49 1.68 2.23 1.68a3.86 3.86 0 0 1 1.65.63 3.24 3.24 0 0 0 2.16.63c1.29 0 2.07-.47 1.4-.85a2 2 0 0 1-.59-.83 2.3 2.3 0 0 0-2.31-1.26c-.81 0-1.63-.43-1.63-.87s1.2-.81 1.91-.81a2.28 2.28 0 0 0 1.2-.42 2.12 2.12 0 0 1 1-.42c.52 0 1-.34 1-.67 0-.09-.26-.17-.58-.17-.56 0-1.08-.32-1.08-.66s1-1 1.62-1a2.68 2.68 0 0 0 1.33-.45c.53-.38.81-.43 1.92-.33a2.61 2.61 0 0 0 2.7-.95 1.63 1.63 0 0 1 .93-.38 1.94 1.94 0 0 0 .94-.31c.94-.73 1.21.18 1.12 3.77l-.07 2.85h.48a2.37 2.37 0 0 0 .88-.21c.3-.17.6-.12 1.22.21 1 .53 1.15.53 1.93 0a7.16 7.16 0 0 1 1.37-.72c1-.34 1-.53.13-1.43s-1.11-.9-1.77-.54c-.46.24-1.65-.26-1.64-.7a5.84 5.84 0 0 1 .8-2.12c.4-.48.7-.43 1.82.29a3.27 3.27 0 0 0 2.16.63c2.7 0 3.69 2.21 1.42 3.16-.55.23-.6.33-.48.89s0 .7-.44 1.08c-.74.61-.55 1.24.54 1.81.45.23.82.51.82.62 0 1.71 3.28 3.16 4.46 2 1.53-1.55 1.33-1.85-1.2-1.89-2 0-2.85-.32-2.85-.93 0-.43 1.54-1.67 2.08-1.67.94 0 1.19-.52.51-1.11-1-.91.63-3.09 2.38-3.09 2.28 0 3.74 2.85 2.15 4.18-.65.54-.73.68-.47.86a2 2 0 0 0 2.22-.64c2.48-3 4.11-3.41 5.31-1.33l.39.68-.65 1.06c-.64 1-.68 1.44-.12 1.44 2.62 0 2.7 3.33.11 5-3.05 2-4.66.91-4.12-2.79.1-.68-.37-.59-1.16.2s-.92 1.24-.34 2c2.25 2.91-1.42 5.8-4.5 3.84-.8-.51-1.24.1-.89 1.19.53 1.61-1.33 4.28-2.4 4.93h-.09a1.7 1.7 0 0 0-1 1.15 1.84 1.84 0 0 0 2.71-.57c.22-.26.4-.48.61-.48a6.25 6.25 0 0 1 .84.12c.73.12 1.63.28 1.68.12.69-2.31 2.14-2 3-1.33a11.18 11.18 0 0 1 1.24 1.62c.32.48.67.23.93 0s.26-.19.33-.12a2.9 2.9 0 0 0 .85.35 5.65 5.65 0 0 1 .61.22 7.3 7.3 0 0 1-1.43-4.3v-2.09l.77-.77c.62-.63.86-.75 1.3-.64 1.56.4 1.76.38 2.25-.29s1.06-.82 1.76-.12a2.77 2.77 0 0 1 .65 1.26l.25 1.42a1.77 1.77 0 0 1-1.65 1.87l-.65.07-.01 1.5a4.19 4.19 0 0 1-.71 2.47 1.14 1.14 0 0 1-.15.16l.15-.15h.81c3 0 6.81.11 5.44-5.15-1.5-5.75-1.65-8.66-1.23-9.46.3-.56 0-.92-1.13-1.5-3.36-1.7-4.16-2.83-2.59-3.65.84-.44 1-.41 2.68.79a1 1 0 0 1 .4.78c.05.43.09.78 1.37.62-.34-.21.18-1.18.55-1.86.2-.37.35-.66.28-.67-.44-.09-.93-1.47-.93-2.63 0-.86.26-1.28 1.32-2 .15-.11 0-.59-.23-1.24a6.67 6.67 0 0 1-.51-3.36 2 2 0 0 1 1-1.1c.48-.43 1.04-.82.59-1.82zM29.89 15.09c.34 0 .62-.07.62-.16s-.44-.68-.62-.68a.9.9 0 0 0-.38.26c-.4.4-.29.58.38.58zm25.33 15.6a2.85 2.85 0 0 0-.3-1.08 10.27 10.27 0 0 1-.92-2.85 2.64 2.64 0 0 0-.62-1.16l-.14-.15c-.25-.3-.4-.48-.41-.66s.24-.52.85-1.16l.23-.24a12.18 12.18 0 0 0 1.56-2c.22-.45.5-.81.61-.81.42 0 .18-.45-.47-.85-1.86-1.14-5 2.84-3.75 4.77.3.46.3.56 0 .71a7 7 0 0 0-.92.71c-.39.34-.56.49-.72.48s-.25-.1-.47-.26c-.63-.48-1-.25-2 1.16-.52.75-1.45 1.7-1.75 1.7s-.78 1.19-.78 1.71c0 1.2-1.41 1.59-2.92.81-.76-.39-.87-.4-1.44-.1-2.06 1.08 0 3.45 3 3.46a2.16 2.16 0 0 1 1.76.64 1.83 1.83 0 0 0 2.91-1.18 6.85 6.85 0 0 1 .62-1.55 7.49 7.49 0 0 0 .63-1.55c0-.91 1-.87 1.51.06a12.25 12.25 0 0 0 1.29 1.61c.65.69.9 1.11.8 1.34-.76 1.68.54 2.64 2.09 1.54a2.65 2.65 0 0 0 .33-3.84 2.78 2.78 0 0 1-.58-1.26zM28 25.11c.06-.06.05-.21 0-.34s-.52-.29-.52 0 .32.49.52.34zm6.92 3.09a1.31 1.31 0 0 1-1.37-.41c-.57-.51-.7-.54-2.4-.45a6.8 6.8 0 0 1-2.15-.08c-.39-.25-.77-.22-1.74.13a4.83 4.83 0 0 1-1.26.31 1.93 1.93 0 0 0-1.31 1.37c0 .72.66.84 1.19.21l.52-.61.44.56c.47.59 1 .54 2.35-.22.6-.34.69-.33.69.13a1.28 1.28 0 0 0 .41.77c.52.47.53.66 0 .79s-1.14 1.11-1 1.51c.55 1.47 3 .74 3-.9 0-.78.48-1.51 1-1.51a1.36 1.36 0 0 1 1.08 1.05c0 .74 2.2 2.68 2.79 2.45a5.94 5.94 0 0 0 1.36-2.52c.09-.99-2.52-2.78-3.65-2.58zm-12 2.44c-.49 0-.62-1.34-.21-2.11a.78.78 0 0 0 .09-.62c-.18-.29-.34-.25-.93.21a2 2 0 0 1-1 .42c-.85 0-1.27.58-1.27 1.72s.11 1.19.74.71c.78-.6 2.21-.42 2.13.25-.05.47-.18.59-.69.65-.88.1-1.07.37-.62.87s.89.53 1.56 0a1.84 1.84 0 0 1 .81-.42c.33 0 1.06-.6 1.06-.87s-1.25-.81-1.75-.81z" fill="url(#a)"/></svg>