<svg width="698" height="639" fill="none" xmlns="http://www.w3.org/2000/svg"><path fill="#00BC68" d="M375 333.22h323v305H375z"/><path fill="#191A1E" d="M50 25h487v460H50z" filter="url(#filter0_d)"/><path fill-rule="evenodd" clip-rule="evenodd" d="M426.46 186.46c4 0 8.96-4.44 7.53-6.75-.49-.8-3.88-1.46-7.53-1.46-3.65 0-7.04.66-7.53 1.46-1.43 2.31 3.52 6.75 7.53 6.75zm9.61 16.37c-8.07 2.97-10.44 2.25-14.29-4.3-2.58-4.4-3.45-4.55-10.85-1.97-17.28 6.05-15.88 34.33 1.7 34.33h7.65l.8 4.78c3.27 19.56 13.45 19.07 30.38-1.45 13.92-16.86 3.4-38.3-15.39-31.4zm61.15 21.9c2.78 0 1.16-2.88-3.1-5.48-12.16-7.46-32.72 18.46-24.56 30.97 1.95 3 2 3.68.34 4.62a54.4 54.4 0 0 0-6.03 4.64l-.19.15c-2.53 2.2-3.63 3.15-4.7 3.12-.83-.03-1.63-.64-3.06-1.73l-.14-.1c-4.12-3.14-6.71-1.63-13 7.56-3.41 5-9.49 10.93-11.18 10.94-1.56 0-5.14 7.75-5.14 11.1 0 7.82-9.19 10.35-19.1 5.27-5-2.56-5.7-2.6-9.45-.66-13.5 7.01.03 22.48 19.7 22.55 5.58.02 7.67.76 11.57 4.12 6.6 5.66 19.04.63 19.04-7.7 0-1.07 1.84-5.6 4.08-10.08 2.25-4.46 4.08-8.98 4.08-10.04 0-5.93 6.36-5.7 9.92.35 1.26 2.15 5.07 6.86 8.47 10.48 4.24 4.5 5.88 7.25 5.22 8.7-4.98 10.99 3.51 17.21 13.69 10.04 7.76-5.48 8.8-17.3 2.18-25-2.26-2.63-4.1-6.2-4.1-7.92-.01-1.73-.9-4.89-2-7.01-2.89-5.61-6.13-15.39-6.16-18.56 0-1.5-1.85-4.88-4.1-7.51a161.17 161.17 0 0 0-.85-1c-1.68-1.96-2.66-3.1-2.73-4.28-.09-1.65 1.59-3.4 5.6-7.57l1.46-1.53c4.16-4.34 8.76-10.27 10.23-13.17 1.47-2.9 3.28-5.26 4-5.26zm-155.06 32.19c12.33 1.71 13.99-10.96 2.9-22.13-5.73-5.76-16.53-.67-16.53 7.78 0 1.4-2.14 4.18-4.76 6.18-6.5 4.98-6.08 5.71 3.74 6.57 4.67.4 11.26 1.12 14.65 1.6zm-29.05-2.57c.4-.4.32-1.38-.17-2.18-1.1-1.8-3.45-1.92-3.45-.17 0 1.6 2.65 3.33 3.62 2.35zm86.02 28.93c6.86-4.3 6.27-12.42-1.62-22.5-7.3-9.32-20.73.16-15.59 11 3.2 6.75 13.66 13.73 17.21 11.5zm-65.37-14.4c-6.47.33-12.6.08-13.6-.56-2.53-1.6-5.01-1.41-11.36.88-2.99 1.09-6.77 1.98-8.4 2-3 .01-8.6 5.82-8.6 8.92 0 4.67 4.34 5.43 7.82 1.36l3.42-4 2.9 3.66c3.06 3.87 6.51 3.55 15.36-1.42 3.95-2.22 4.5-2.12 4.5.85 0 1.4 1.23 3.64 2.73 5 3.4 3.09 3.43 4.28.14 5.14-3.3.87-7.48 7.2-6.48 9.81 3.66 9.59 19.94 4.83 19.94-5.83 0-5.1 3.15-9.8 6.56-9.8 2.84 0 7.04 4.04 7.04 6.78 0 4.84 14.45 17.47 18.3 15.99 2.16-.84 8.9-13.26 8.9-16.41 0-6.49-16.82-18-24.49-16.77-4.15.66-5.73.19-8.98-2.7-3.72-3.32-4.57-3.48-15.7-2.9zm-55.5 7.69c.79-1.47 1.06-3.28.6-4.02-1.16-1.89-2.23-1.64-6.1 1.4-1.87 1.47-4.88 2.69-6.7 2.7-5.52.05-8.26 3.75-8.26 11.18 0 7.1.7 7.76 4.84 4.62 5.08-3.86 14.46-2.74 13.95 1.66-.35 3.05-1.2 3.85-4.5 4.21-5.8.63-7.07 2.4-4.12 5.67 3.11 3.45 5.87 3.46 10.23.03 1.87-1.47 4.27-2.68 5.34-2.7 2.15-.03 6.9-3.94 6.9-5.67 0-1.61-7.52-5.3-10.81-5.3-3.18 0-4.04-8.76-1.37-13.78zm-53.08 6.23c1.88-2.28 1.88-2.3-2.06-4.5-6.15-3.46-10.89-.68-6.73 3.94 2.86 3.18 6.44 3.4 8.8.56zm20.38.04c1 0 2.07-.77 2.38-1.71.34-1.02-.63-1.71-2.38-1.71-1.76 0-2.72.69-2.38 1.7.3.95 1.38 1.72 2.38 1.72zm-13.52 22.3a4.27 4.27 0 0 0 2.38-2.4c.34-1.02-.17-1.53-1.19-1.2a4.27 4.27 0 0 0-2.38 2.4c-.34 1.03.17 1.54 1.19 1.2zm15.73 12.28c1.94-1.94 2.02-2.67.53-4.49-3.32-4.02-7.04.25-4.15 4.77 1.15 1.8 1.6 1.76 3.62-.28z" fill="url(#paint0_linear)"/><path fill-rule="evenodd" clip-rule="evenodd" d="M371.38 92.63c5.1 1.93 14.27 7.61 14.28 8.84 0 .5 1.83 3.07 4.08 5.7 2.24 2.63 4.07 5.58 4.07 6.55 0 .97 1.23 4.17 2.73 7.12a29.85 29.85 0 0 1 2.72 11.35c0 6.78 2.39 9.74 8.84 10.96 2.24.42 6.83 1.45 10.2 2.3 3.37.84 8.87 2 12.24 2.56 3.37.56 7.96 1.96 10.2 3.09a78.76 78.76 0 0 0 10.2 3.93c3.37 1.02 7.65 2.9 9.52 4.16 1.88 1.27 6.77 4 10.89 6.09 12.21 6.16 39.84 23.24 65.65 40.56V485H347.53c0-1.5 0-3.35-.02-4.78-.06-13.61-.11-24.5 6.02-38.91 3.3-7.76 9.64-15.05 14.48-20.61 2.19-2.51 4.06-4.67 5.23-6.37l4.4-6.44-2.92-5.24c-1.6-2.87-4.55-6.2-6.54-7.38a66.45 66.45 0 0 1-7.69-5.68c-2.24-1.95-4.87-3.54-5.83-3.54s-3.38-1.08-5.38-2.4c-17.11-11.27-46.64-6.8-61.63 9.31-4.9 5.27-20.2 14.96-23.62 14.96-1.58 0-6.22 1.23-10.31 2.74-9.84 3.61-21.19 3.55-29.55-.15-14.13-6.26-18.62-8.82-22-12.52a941.9 941.9 0 0 0-9-9.6c-3-3.17-6.95-7.91-8.77-10.54-1.83-2.64-3.69-5.1-4.13-5.47-.45-.38-2.28-2.84-4.08-5.47a54.03 54.03 0 0 0-5.44-6.84 56.6 56.6 0 0 1-5.5-6.82c-4.04-5.81-9.08-11.71-13.3-15.58-21.75-19.9-24.85-25.45-19.79-35.42 3.22-6.33 14.33-24.76 15.42-25.57 5.3-3.9 31.33-49.27 31.33-54.6 0-1.5 1.18-5.37 2.61-8.59a202.6 202.6 0 0 0 4.29-10.38c2.54-6.9 25.05-29.04 36.74-36.15 12.28-7.46 23.67-13.3 26.02-13.34.96-.02 3.28-1.24 5.15-2.7 1.87-1.48 4.27-2.7 5.34-2.71 2.56-.04 23.18-12.5 28.76-17.39 2.41-2.1 7.25-6.6 10.75-9.98 14.32-13.83 30.86-24.6 37.76-24.6 1.34 0 5.79-1.24 9.88-2.74 8.09-2.97 18.64-3.33 25.17-.87zm-130.56 92.22c8.14 3.73 11.31 1.65 14.8-9.67.72-2.35 4.93-3.28 6.71-1.48 2.14 2.15.6 8.32-3.17 12.76-3.03 3.55-4.09 6.19-4.11 10.25-.07 10.1-5.93 24.54-10.16 25.05-5.52.67-9.25-3.38-8.21-8.93.8-4.26-2.06-7.53-9-10.3-.47-.2-.54-3.63-.15-7.64.86-8.77 6.6-13.1 13.3-10.04zm84.99 4.34c-4.35 0-5.1-1.17-2.45-3.83.9-.9 2-1.64 2.45-1.64 1.19 0 4.08 3.1 4.08 4.38 0 .6-1.84 1.1-4.08 1.1zm-111.45 16.16c-3.22.32-4.3-.06-3.87-1.36.33-1 2.6-2.01 5.05-2.25 3.23-.32 4.3.06 3.88 1.37-.33.99-2.6 2-5.06 2.24zm48.2 149.26c-2.11 1.76-6.12-.14-6.12-2.9 0-.66 1.83-1.2 4.08-1.2 4.47 0 5.2 1.46 2.04 4.1zm-10.43 32.1c-2.54-.97-5.5-5.93-4.5-7.55 1.16-1.9 19.32-1.66 20.5.26 1.86 3.03-11.4 9.07-16 7.3zm72.53-262.31c4.29-3.12 15.18-8.62 18.83-9.52 8.59-2.11 23.62-2.42 26.01-.53 10.61 8.4 10.67 23.9.14 42.03-5.14 8.87-5.22 9.55-1.65 13.7 2.18 2.52 2.54 4.16 1.74 8.06-.55 2.7-.9 8.22-.77 12.27.16 4.98-.63 9.06-2.42 12.59-3.05 6.02-3.33 10.76-1 17.23 1.25 3.5 1.27 5.56.07 8.76-1.3 3.48-1.14 5.14.99 9.88a99.81 99.81 0 0 1 3.28 8.08c2.89 9.47 16.54.36 15.34-10.23-.75-6.57-.41-7.85 3.89-14.66 5.5-8.7 5.65-9.93 1.9-15.22-3.32-4.69-2.51-6.71 2.68-6.71 11.77 0 9.37-15.28-3.48-22.13l-.73-.4c-2.69-1.42-4.18-2.2-4.63-3.4-.56-1.49.5-3.6 2.9-8.36l.51-1.03c6.26-12.46 16.13-13.3 31.6-2.7 2 1.36 4.3 2.47 5.14 2.47.83 0 7.16 2.86 14.07 6.35 6.9 3.5 14.08 6.77 15.95 7.28 4.17 1.13 4.5 4.67.49 5.25-7.29 1.04-6.53 16.67.8 16.67.5 0 2.12 1.07 3.57 2.39 6.7 6.03 6.94 6.11 11.28 3.86 3.02-1.57 4.2-3.26 4.52-6.45 1.35-13.7 26.35 1.94 27.22 17.03.37 6.28.9 7.33 5.17 10.2 6.12 4.12 6.46 5.37 2.05 7.4-13.45 6.15-7.47 14.2 7.1 28.45 2.9 6.52-.72 9.04-4.56 11.73-2.65 1.85-5.41 3.78-6.23 7.16-1.65 6.85 1.26 15.53 3.37 21.8 1.43 4.25 2.48 7.38 1.49 8.09-6.9 4.9-8.66 7.59-8.64 13.23.03 7.55 3.23 16.48 6.13 17.07.46.1-.55 1.95-1.88 4.39-2.39 4.4-5.82 10.71-3.62 12.12-8.38 1.02-8.65-1.26-8.97-4.06-.2-1.72-.43-3.64-2.56-5.1-11.33-7.76-12.1-7.99-17.59-5.14-10.3 5.35-5.05 12.68 17 23.74 7.6 3.81 9.35 6.13 7.39 9.8-2.77 5.21-1.77 24.1 8.03 61.5 8.97 34.22-15.93 33.83-35.62 33.51-1.83-.03-3.6-.06-5.3-.06l.02-.03c2.52-3.11 4.28-8.42 4.59-16.1l.4-9.78 4.3-.42c6.54-.63 11.77-6.55 10.77-12.18l-1.62-9.23a18.06 18.06 0 0 0-4.26-8.2c-4.55-4.57-7.77-4.37-11.53.75-3.21 4.37-4.53 4.54-14.76 1.93-2.83-.73-4.43.05-8.5 4.14l-5 5.03v13.32c0 11.87 4.76 23.17 9.66 28.8-.88-.41-2.4-.9-3.98-1.4-2.4-.78-4.93-1.6-5.55-2.26-.46-.5-1.23.05-2.19.73-1.7 1.2-3.99 2.82-6.1-.31-3.28-4.89-6.92-9.64-8.09-10.55-5.63-4.42-15.13-6.34-19.67 8.65-.32 1.04-6.22.04-10.97-.76-2.48-.42-4.64-.78-5.54-.78-1.4 0-2.56 1.42-3.96 3.14-3.08 3.79-7.33 9-17.8 3.7 1.25-4.59 3.77-6.06 6.24-7.5h.01l.56-.34c7.06-4.19 19.2-21.58 15.77-32.04-2.34-7.12.6-11.06 5.77-7.77 20.2 12.79 44.26-6.03 29.51-24.98-3.8-4.87-3.38-7.26 2.23-12.9 5.16-5.19 8.24-5.72 7.59-1.3-3.55 24.03 7 31.12 27.01 18.13 16.9-10.98 16.4-32.64-.77-32.64-3.63 0-3.41-2.56.81-9.39l4.26-6.88-2.6-4.46c-7.83-13.5-18.46-10.83-34.77 8.71-3.39 4.07-11.32 6.14-14.64 3.82-1.7-1.19-1.2-2.12 3.06-5.63 10.46-8.62.85-27.17-14.08-27.18-11.42 0-22.4 14.21-15.55 20.13 4.42 3.82 2.82 7.21-3.39 7.21-3.5 0-13.57 8.06-13.57 10.86 0 3.97 5.73 5.83 18.62 6.03 16.61.25 17.9 2.25 7.87 12.33-7.7 7.73-29.2-1.73-29.2-12.86 0-.7-2.41-2.5-5.35-4-7.18-3.69-8.43-7.84-3.53-11.76 3.1-2.48 3.57-3.68 2.83-7.06-.79-3.61-.42-4.28 3.16-5.77 14.88-6.2 8.4-20.58-9.3-20.58-6.2 0-8.93-.79-14.12-4.1-7.34-4.68-9.35-5-11.91-1.89-1.94 2.35-5.26 11.01-5.3 13.82-.03 2.86 7.78 6.14 10.8 4.52 4.28-2.3 6.34-1.67 11.54 3.56 5.82 5.85 5.72 7.05-.8 9.3a42.4 42.4 0 0 0-9 4.64c-5.08 3.64-5.87 3.66-12.63.2-4.09-2.1-6.04-2.44-8.01-1.38-1.44.78-4.03 1.4-5.76 1.41h-3.16l.48-18.53c.6-23.4-1.16-29.28-7.36-24.58a12.07 12.07 0 0 1-6.12 2.05 10.67 10.67 0 0 0-6.12 2.49c-6.78 6.27-8.89 7.01-17.67 6.19-7.3-.69-9.1-.38-12.6 2.12-2.24 1.6-6.15 2.92-8.7 2.92-4.28 0-10.6 3.94-10.6 6.61 0 2.23 3.44 4.32 7.08 4.32 2.1 0 3.8.5 3.8 1.1 0 2.19-3.34 4.37-6.73 4.4-1.9.02-5 1.24-6.86 2.7a15.05 15.05 0 0 1-7.9 2.71c-4.66.03-12.5 3.37-12.5 5.32 0 2.82 5.36 5.65 10.7 5.65 7.5 0 12.97 2.95 15.12 8.17.96 2.3 2.7 4.74 3.87 5.4 4.37 2.46-.76 5.57-9.2 5.57-6.25 0-8.95-.79-14.16-4.1-3.7-2.37-8.28-4.1-10.8-4.1-4.84-.01-9.44-3.45-14.6-10.94a87.1 87.1 0 0 0-5.62-7.32c-7.75-8.51-6.36-14.27 6.82-28.06 15.67-16.4 15.83-30.8.18-16.57-5.34 4.86-6.77 5.47-12.88 5.47-3.79 0-10.17 1.2-14.19 2.68-5.67 2.09-7.94 2.35-10.18 1.2-4.41-2.3-7.63-5.48-7.63-7.54 0-1.96 28.49-45.5 32.84-50.2 1.39-1.49 2.52-3.53 2.52-4.54 0-1 1.84-5.49 4.08-9.96 2.25-4.47 4.1-8.9 4.11-9.87.02-.96 1.23-3.28 2.7-5.16 1.45-1.88 2.67-4.45 2.68-5.71.02-1.27 1.65-3.57 3.62-5.13 8.8-6.96 19.5 2.14 12.73 10.84-1.46 1.88-2.68 4.34-2.71 5.47-.06 2.14-5.31 9.32-10.55 14.42-1.68 1.64-3.06 3.86-3.06 4.95 0 1.08-1.83 4.87-4.08 8.43-4.7 7.44-5.79 19.65-2.04 22.78 2.89 2.4 6.12-.56 6.12-5.6 0-2.74 1.21-4.79 4.08-6.92 2.75-2.05 4.08-4.22 4.08-6.67 0-5.67 3.85-8.15 12.61-8.15 8.81 0 9.66.75 7.45 6.63-1.43 3.81-1.28 4.64 1.3 7.23l2.9 2.92 4.53-2.7c3.98-2.36 4.49-3.3 4.15-7.63-.3-3.81.24-5.28 2.38-6.43 3.67-1.98 3.5-4.45-.81-10.99l-.34-.5c-2.12-3.24-2.98-4.54-4-4.7-.7-.1-1.46.31-2.74 1l-.3.17c-1.93 1.04-3.7.85-6.71-.72-6.25-3.25-5.34-6.84 2.76-10.97 7.16-3.65 9.47-3.5 9.47.58 0 2.9 4.12 6.97 7.06 6.97 8.15 0 11.36 11.88 5.17 19.14-7.02 8.21-6.51 13.66 1.26 13.66 4.91 0 6.9-2.32 6.95-8.13.03-2.7 1.53-7.28 3.4-10.32 1.84-3 3.35-7.1 3.35-9.1.01-3.43 8.16-13.46 10.95-13.46 2.6 0 2.6 2.97 0 8.1-6.15 12.1-2.33 25.14 7.16 24.45 5.67-.42 5.7-.46 6.45-6.57.77-6.4 3.29-12.3 5.24-12.3.62 0 2.74-1.63 4.71-3.6 6.02-6.06 3.93-20.71-2.72-19.04-2.41.61-3.88-.32-6.87-4.36-8.8-11.9-11.53-12.98-19.46-7.7-7.51 4.99-12.86 3.78-11.53-2.6 1.33-6.44 5-9.86 8.54-7.96 7.42 4 14.51.01 10.62-5.96-1.34-2.05-2.2-6.25-2.2-10.73 0-8.34-2.56-11.88-8.6-11.88-3.94 0-4.58-1.24-2-3.83 6.77-6.81 27.1 1.08 23.07 8.97-7.02 13.79 3.9 23.72 13.52 12.3l3.74-4.45 2.95 2.9c2.5 2.47 2.71 3.38 1.36 5.93-3.14 5.9 1.25 8.26 15.3 8.26 12.01 0 12.17.04 11.24 3.07-2.36 7.65-2.26 8.88 1.04 12.73 3.8 4.45 6.15 3.57 9.88-3.67 3.5-6.8 2.57-10.4-3.49-13.5-6.51-3.34-6.53-3.5-1.36-9.57 9.51-11.17 2.85-22.32-10.46-17.5-3.86 1.41-4.87 1.32-6.8-.62-2.91-2.93-.5-9.22 3.53-9.22 2.83 0 8.29-5.97 8.29-9.07 0-4.77-15.36-1.76-21.2 4.15-9.96 10.11-17.6 14.37-18.64 10.39a3.62 3.62 0 0 0-3.6-2.74c-6.38 0-3.17-12.12 5.31-20.03 18.73-17.47 19.89-18.18 18.39-11.32-1.73 7.9 8.02 12.96 13.4 6.98 3.14-3.48 2.95-3.92-3.08-7.02-4.44-2.27-8.43-7.52-6.69-8.8zM434 179.7c1.43 2.32-3.52 6.76-7.53 6.76-4 0-8.96-4.44-7.53-6.75.49-.8 3.88-1.46 7.53-1.46 3.65 0 7.04.66 7.53 1.46zm-12.2 18.83c3.84 6.56 6.2 7.27 14.28 4.3 18.8-6.9 29.3 14.53 15.39 31.4-16.93 20.51-27.11 21-30.38 1.44l-.8-4.78h-7.64c-17.58 0-18.99-28.28-1.71-34.32 7.4-2.6 8.27-2.44 10.85 1.96zm72.34 20.72c4.25 2.6 5.87 5.49 3.09 5.49-.74 0-2.54 2.37-4 5.26-1.48 2.9-6.08 8.83-10.24 13.17-.52.55-1 1.06-1.47 1.53-4 4.18-5.68 5.92-5.59 7.57.06 1.19 1.05 2.32 2.73 4.28l.86 1c2.24 2.63 4.08 6.01 4.1 7.51.02 3.17 3.26 12.95 6.15 18.56 1.1 2.12 1.99 5.28 2 7 0 1.74 1.84 5.3 4.1 7.94 6.61 7.7 5.58 19.51-2.18 24.99-10.18 7.17-18.67.95-13.69-10.03.66-1.46-.98-4.2-5.22-8.71-3.4-3.62-7.21-8.33-8.47-10.48-3.56-6.05-9.92-6.28-9.92-.35 0 1.06-1.83 5.58-4.08 10.04-2.24 4.47-4.08 9-4.08 10.08 0 8.33-12.45 13.36-19.04 7.7-3.9-3.36-6-4.1-11.56-4.12-19.68-.07-33.2-15.54-19.71-22.55 3.75-1.95 4.45-1.9 9.45.66 9.91 5.08 19.1 2.55 19.1-5.27 0-3.35 3.58-11.1 5.14-11.1 1.7 0 7.77-5.95 11.18-10.94 6.29-9.19 8.88-10.7 13-7.56l.14.1c1.43 1.09 2.23 1.7 3.06 1.73 1.07.03 2.17-.92 4.7-3.12l.19-.15a54.4 54.4 0 0 1 6.03-4.64c1.67-.94 1.62-1.62-.34-4.62-8.16-12.51 12.4-38.43 24.57-30.97zM345.05 234.8c11.1 11.17 9.44 23.84-2.9 22.13-3.38-.48-9.97-1.2-14.64-1.6-9.82-.86-10.24-1.59-3.74-6.57 2.62-2 4.76-4.79 4.76-6.18 0-8.45 10.8-13.54 16.52-7.78zm-32.1 17.38c.49.8.56 1.78.16 2.19-.97.97-3.63-.75-3.63-2.36 0-1.75 2.35-1.63 3.46.17zm84.56 8.6c7.89 10.09 8.48 18.2 1.62 22.51-3.55 2.23-14-4.75-17.2-11.5-5.15-10.84 8.29-20.32 15.58-11zm-77.35 7.55c1 .64 7.13.9 13.6.56 11.13-.58 11.98-.42 15.7 2.9 3.25 2.89 4.83 3.36 8.98 2.7 7.67-1.24 24.5 10.28 24.5 16.77 0 3.15-6.75 15.57-8.91 16.4-3.85 1.5-18.3-11.14-18.3-15.98 0-2.74-4.2-6.78-7.04-6.78-3.41 0-6.56 4.7-6.56 9.8 0 10.66-16.28 15.42-19.94 5.83-1-2.6 3.19-8.94 6.48-9.8 3.28-.87 3.25-2.06-.14-5.15-1.5-1.36-2.72-3.6-2.72-5 0-2.97-.56-3.07-4.51-.85-8.85 4.96-12.3 5.28-15.37 1.42l-2.9-3.65-3.41 4c-3.48 4.06-7.82 3.3-7.82-1.37 0-3.1 5.6-8.9 8.6-8.93 1.63 0 5.41-.9 8.4-1.99 6.35-2.3 8.83-2.49 11.36-.88zm-41.3 4.23c.46.74.19 2.55-.6 4.02-2.67 5.02-1.8 13.78 1.37 13.78 3.29 0 10.81 3.69 10.81 5.3 0 1.73-4.75 5.64-6.9 5.67-1.07.02-3.47 1.23-5.34 2.7-4.36 3.43-7.12 3.42-10.23-.03-2.95-3.27-1.67-5.04 4.11-5.67 3.3-.36 4.16-1.16 4.51-4.2.5-4.41-8.87-5.53-13.95-1.67-4.14 3.14-4.84 2.47-4.84-4.62 0-7.43 2.74-11.13 8.27-11.18 1.8-.01 4.82-1.23 6.7-2.7 3.86-3.04 4.93-3.29 6.1-1.4zm-55.75 5.74c3.94 2.22 3.95 2.23 2.07 4.51-2.35 2.85-5.93 2.62-8.79-.56-4.16-4.62.58-7.4 6.73-3.95zm24.83 2.84a2.68 2.68 0 0 1-2.38 1.7c-1 0-2.07-.76-2.38-1.7-.34-1.02.62-1.71 2.38-1.71 1.75 0 2.72.69 2.38 1.7zm-13.52 21.61a4.27 4.27 0 0 1-2.38 2.4c-1.02.34-1.53-.17-1.19-1.2a4.27 4.27 0 0 1 2.38-2.4c1.02-.33 1.53.18 1.19 1.2zm13.88 10.2c1.5 1.8 1.4 2.54-.53 4.48-2.03 2.04-2.47 2.07-3.62.28-2.89-4.52.83-8.79 4.15-4.77z" fill="url(#paint1_linear)"/><defs><filter id="filter0_d" x="0" y="0" width="587" height="560" filterUnits="userSpaceOnUse" color-interpolation-filters="sRGB"><feFlood flood-opacity="0" result="BackgroundImageFix"/><feColorMatrix in="SourceAlpha" values="0 0 0 0 0 0 0 0 0 0 0 0 0 0 0 0 0 0 127 0"/><feOffset dy="25"/><feGaussianBlur stdDeviation="25"/><feColorMatrix values="0 0 0 0 0 0 0 0 0 0 0 0 0 0 0 0 0 0 0.25 0"/><feBlend in2="BackgroundImageFix" result="effect1_dropShadow"/><feBlend in="SourceGraphic" in2="effect1_dropShadow" result="shape"/></filter><linearGradient id="paint0_linear" x1="537" y1="91" x2="60.18" y2="214.25" gradientUnits="userSpaceOnUse"><stop stop-color="#191A1E"/><stop offset=".57" stop-color="#00BC68"/></linearGradient><linearGradient id="paint1_linear" x1="537" y1="91" x2="60.18" y2="214.25" gradientUnits="userSpaceOnUse"><stop stop-color="#191A1E"/><stop offset=".57" stop-color="#00BC68"/></linearGradient></defs></svg>