<svg xmlns="http://www.w3.org/2000/svg" width="150" height="62" viewBox="0 0 150 62"><path fill="#00bc68" d="M0 0h150v62H0z"/><path d="M51.5 13.5v35h47v-35zm44 3L75 33.8 54.5 16.5zm0 4v21L83 31zM66.9 31L54.5 41.3V20.7zM54.5 45.5L69.2 33l5.8 4.8 5.7-4.8 14.8 12.5h-41z" fill="#fff"/><path d="M51.5 13.5v35h47v-35zm44 3L75 33.8 54.5 16.5zm0 4v21L83 31zM66.9 31L54.5 41.3V20.7zM54.5 45.5L69.2 33l5.8 4.8 5.7-4.8 14.8 12.5h-41z" fill="#fff"/><path d="M51.5 13.5v35h47v-35zm44 3L75 33.8 54.5 16.5zm0 4v21L83 31zM66.9 31L54.5 41.3V20.7zM54.5 45.5L69.2 33l5.8 4.8 5.7-4.8 14.8 12.5h-41z" fill="#fff"/></svg>