<svg xmlns="http://www.w3.org/2000/svg" xmlns:xlink="http://www.w3.org/1999/xlink" style="display:none"><symbol id="arrow-down"><path d="M0 0h2l3 3 3-3h2L5 5z"/></symbol><symbol id="arrow-right"><path d="M0 10V8l3-3-3-3V0l5 5z"/></symbol><symbol id="asterisc-icon"><path d="M3.3 8l.12-3.06L.7 6.58 0 5.42 2.86 4 0 2.58l.7-1.16 2.72 1.64L3.3 0h1.4l-.12 3.06L7.3 1.42 8 2.58 5.14 4 8 5.42l-.7 1.16-2.72-1.64L4.7 8z"/></symbol><symbol id="close-icon"><path d="M12.83 10L20 2.83V0h-2.83L10 7.17 2.83 0H0v2.83L7.17 10 0 17.17V20h2.83L10 12.83 17.17 20H20v-2.83L12.83 10z"/></symbol><symbol id="facebook-icon"><path d="M8.8 14.4H13l.6-4.8H8.8V6.9c0-1.5.3-2.4 2.4-2.4h2.4V.2C13.1.2 12 0 10.2 0 6.6 0 4 2.2 4 6.4v3.2H0v4.8h4v12.8h4.8V14.4z"/></symbol><symbol id="fb-messenger-icon"><path fill-rule="evenodd" clip-rule="evenodd" d="M13 0C5.8 0 0 5.4 0 12c0 3.8 1.9 7.2 4.8 9.4V26l4.5-2.4c1.2.3 2.4.5 3.7.5 7.2 0 13-5.4 13-12C26 5.3 20.2 0 13 0zm1.3 16.2L11 12.7l-6.5 3.5 7.1-7.5 3.4 3.5 6.4-3.5-7.1 7.5z"/></symbol><symbol id="instagram-icon"><path d="M6 25.4V8.3H.3v17.1H6zM3.2 6c2 0 3.2-1.3 3.2-3 0-1.6-1.2-3-3.2-3S0 1.3 0 3c0 1.6 1.2 3 3.2 3zm6 19.4h5.7v-9.6c0-.5 0-1 .2-1.4.4-1 1.3-2 3-2 2 0 2.8 1.5 2.8 3.8v9.2h5.7v-9.8c0-5.3-2.8-7.7-6.6-7.7-3 0-4.4 1.7-5.2 2.9V8.3H9.3v17.1z"/></symbol><symbol id="lang-switcher-icon"><path d="M13 0a13 13 0 000 26 13 13 0 000-26zm0 24.6c-1.3 0-2.8-2.8-3.4-7h6.8c-.6 4.2-2 7-3.4 7zm-3.6-8.4a32.6 32.6 0 010-6.4h7.2a29.8 29.8 0 01.1 3.2 29.8 29.8 0 01-.1 3.2zm-8-3.2A11.8 11.8 0 012 9.8h6a34.4 34.4 0 000 6.4H1.9a11.8 11.8 0 01-.5-3.2zM13 1.4c1.3 0 2.8 2.8 3.4 7H9.6c.6-4.2 2-7 3.4-7zm5 8.4h6.1a11.5 11.5 0 010 6.4H18a34.4 34.4 0 000-6.4zm5.6-1.4h-5.8a16.7 16.7 0 00-2.1-6.7 11.6 11.6 0 017.9 6.7zM10.3 1.7a16.7 16.7 0 00-2.1 6.7H2.4a11.6 11.6 0 018-6.7zm-7.9 16h5.8a16.7 16.7 0 002.1 6.6 11.6 11.6 0 01-7.9-6.7zm13.3 6.6a16.7 16.7 0 002.1-6.7h5.8a11.6 11.6 0 01-8 6.7z"/></symbol><symbol id="linkedin-icon"><path d="M6 25.4V8.3H.3v17.1H6zM3.2 6c2 0 3.2-1.3 3.2-3 0-1.6-1.2-3-3.2-3S0 1.3 0 3c0 1.6 1.2 3 3.2 3zm6 19.4h5.7v-9.6c0-.5 0-1 .2-1.4.4-1 1.3-2 3-2 2 0 2.8 1.5 2.8 3.8v9.2h5.7v-9.8c0-5.3-2.8-7.7-6.6-7.7-3 0-4.4 1.7-5.2 2.9V8.3H9.3v17.1z"/></symbol><symbol id="telegram-icon"><path fill-rule="evenodd" clip-rule="evenodd" d="M20 21.4c.3.3.7.3 1.1.2.4-.2.7-.5.8-1l4-19.6c.1-.3 0-.6-.2-.8a.9.9 0 00-.9-.1L.6 9c-.4.1-.6.5-.6.9 0 .3.3.7.6.8l6 1.8L9 19.8c0 .3.3.5.6.6.3.1.7 0 .9-.2l3.4-3.2 6 4.4zM8 12l1.8 6 .4-3.8 11-10c.2 0 .2-.2 0-.3a.3.3 0 00-.3-.1L7.9 12z"/></symbol><symbol id="viber-icon"><path fill-rule="evenodd" clip-rule="evenodd" d="M14 15.7s.5 0 .8-.3l.5-.6c.2-.3.8-.5 1.4-.2.8.4 1.8 1.1 2.5 1.7.3.4.4.8.2 1.3-.3.5-.7 1-1.1 1.3-.5.5-1 .7-1.7.5-1.1-.3-3.8-1.7-5.5-3a17.4 17.4 0 01-5.3-7.8c-.2-.6 0-1.2.5-1.7.4-.4.8-.8 1.3-1 .5-.3 1-.2 1.3.1.4.5 1.2 1.5 1.7 2.5.4.6.1 1.2-.2 1.4l-.6.5c-.3.3-.3.8-.3.8s1 3.6 4.5 4.5zm5.6-3a.3.3 0 01-.3-.3c0-2.1-.7-3.8-1.9-5a6.4 6.4 0 00-4.6-1.8.3.3 0 01-.3-.3c0-.2.1-.4.3-.4 2 0 3.7.7 5 2 1.5 1.4 2.2 3.2 2.2 5.5 0 .2-.2.3-.4.3zm-1.8-.7a.3.3 0 01-.3-.4 4 4 0 00-1-2.9 4.3 4.3 0 00-3.1-1.3.3.3 0 01-.3-.4c0-.2.2-.3.3-.3A5 5 0 0117 8.2c.9 1 1.3 2.1 1.2 3.5 0 .1-.1.3-.3.3zm-1.8-.6a.3.3 0 01-.3-.3c0-1.2-.6-1.8-1.8-1.8a.3.3 0 110-.7c1.6 0 2.4.9 2.5 2.4 0 .2-.2.4-.4.4zm7.8 4c-.7 5.5-4.8 5.9-5.5 6.1-.3.1-3.3.9-7 .6l-3.7 4.3c-.1.1-.3.2-.4.1l-.2-.4v-4.6C1.6 20 2 14.3 2 11.3c0-3 .6-5.4 2.3-7 3-2.7 9-2.3 9-2.3 5.3 0 7.8 1.5 8.3 2 2 1.7 3 5.6 2.2 11.4zm-.7-12.7C22.4 2 19.6 0 13.5 0c0 0-7.2-.4-10.8 2.8-2 2-2.6 4.9-2.7 8.4 0 3.6-.2 10.2 6.3 12V26s0 1.1.7 1.4c.9.2 1.4-.6 2.2-1.5l1.6-1.8c4.4.3 7.8-.5 8.2-.6.9-.3 6-1 6.7-7.6.9-7-.4-11.3-2.6-13.2z"/></symbol><symbol id="whatsapp-icon"><path d="M22.03 3.83A12.85 12.85 0 000 12.86c0 2.33.55 4.52 1.78 6.43L0 26l6.84-1.78A12.21 12.21 0 0013 25.86c7.12 0 12.86-5.74 12.86-12.86a12.5 12.5 0 00-3.83-9.17zM13 23.53c-1.92 0-3.83-.54-5.47-1.5l-.41-.27-4.1 1.1 1.09-3.98-.28-.4a10.44 10.44 0 01-1.64-5.75c0-5.89 4.79-10.68 10.67-10.68 2.88 0 5.61 1.1 7.53 3.15a10.45 10.45 0 013.15 7.53A10.52 10.52 0 0113 23.53zm5.88-7.93l-2.19-1.1c-.27-.13-.54-.13-.68.14-.27.28-.82 1.1-1.1 1.23-.13.28-.4.28-.68.14-.27-.14-1.37-.55-2.6-1.64a8.57 8.57 0 01-1.78-2.2c-.13-.26 0-.54.14-.68.14-.13.27-.27.41-.54.14-.14.27-.28.27-.55.14-.27 0-.41 0-.55 0-.13-.68-1.64-.95-2.32-.28-.69-.55-.55-.69-.55h-.55c-.27 0-.54.14-.82.4-.27.28-1.1 1.1-1.1 2.75 0 1.64 1.1 3.14 1.38 3.28.13.27 2.32 3.42 5.47 4.79.82.27 1.37.55 1.78.68.82.28 1.5.28 2.05.14.69-.14 1.92-.82 2.2-1.5.27-.69.27-1.37.13-1.5a2.99 2.99 0 00-.69-.42z"/></symbol></svg>