<svg width="26" height="28" xmlns="http://www.w3.org/2000/svg"><path fill-rule="evenodd" clip-rule="evenodd" d="M14 15.7s.5 0 .8-.3l.5-.6c.2-.3.8-.5 1.4-.2.8.4 1.8 1.1 2.5 1.7.3.4.4.8.2 1.3-.3.5-.7 1-1.1 1.3-.5.5-1 .7-1.7.5-1.1-.3-3.8-1.7-5.5-3a17.4 17.4 0 0 1-5.3-7.8c-.2-.6 0-1.2.5-1.7.4-.4.8-.8 1.3-1 .5-.3 1-.2 1.3.1.4.5 1.2 1.5 1.7 2.5.4.6.1 1.2-.2 1.4l-.6.5c-.3.3-.3.8-.3.8s1 3.6 4.5 4.5zm5.6-3a.3.3 0 0 1-.3-.3c0-2.1-.7-3.8-1.9-5a6.4 6.4 0 0 0-4.6-1.8.3.3 0 0 1-.3-.3c0-.2.1-.4.3-.4 2 0 3.7.7 5 2 1.5 1.4 2.2 3.2 2.2 5.5 0 .2-.2.3-.4.3zm-1.8-.7a.3.3 0 0 1-.3-.4 4 4 0 0 0-1-2.9 4.3 4.3 0 0 0-3.1-1.3.3.3 0 0 1-.3-.4c0-.2.2-.3.3-.3A5 5 0 0 1 17 8.2c.9 1 1.3 2.1 1.2 3.5 0 .1-.1.3-.3.3zm-1.8-.6a.3.3 0 0 1-.3-.3c0-1.2-.6-1.8-1.8-1.8a.3.3 0 1 1 0-.7c1.6 0 2.4.9 2.5 2.4 0 .2-.2.4-.4.4zm7.8 4c-.7 5.5-4.8 5.9-5.5 6.1-.3.1-3.3.9-7 .6l-3.7 4.3c-.1.1-.3.2-.4.1l-.2-.4v-4.6C1.6 20 2 14.3 2 11.3c0-3 .6-5.4 2.3-7 3-2.7 9-2.3 9-2.3 5.3 0 7.8 1.5 8.3 2 2 1.7 3 5.6 2.2 11.4zm-.7-12.7C22.4 2 19.6 0 13.5 0c0 0-7.2-.4-10.8 2.8-2 2-2.6 4.9-2.7 8.4 0 3.6-.2 10.2 6.3 12V26s0 1.1.7 1.4c.9.2 1.4-.6 2.2-1.5l1.6-1.8c4.4.3 7.8-.5 8.2-.6.9-.3 6-1 6.7-7.6.9-7-.4-11.3-2.6-13.2z"/></svg>