<svg width="26" height="26" xmlns="http://www.w3.org/2000/svg"><path d="M22.03 3.83A12.85 12.85 0 0 0 0 12.86c0 2.33.55 4.52 1.78 6.43L0 26l6.84-1.78A12.21 12.21 0 0 0 13 25.86c7.12 0 12.86-5.74 12.86-12.86a12.5 12.5 0 0 0-3.83-9.17zM13 23.53c-1.92 0-3.83-.54-5.47-1.5l-.41-.27-4.1 1.1 1.09-3.98-.28-.4a10.44 10.44 0 0 1-1.64-5.75c0-5.89 4.79-10.68 10.67-10.68 2.88 0 5.61 1.1 7.53 3.15a10.45 10.45 0 0 1 3.15 7.53A10.52 10.52 0 0 1 13 23.53zm5.88-7.93l-2.19-1.1c-.27-.13-.54-.13-.68.14-.27.28-.82 1.1-1.1 1.23-.13.28-.4.28-.68.14-.27-.14-1.37-.55-2.6-1.64a8.57 8.57 0 0 1-1.78-2.2c-.13-.26 0-.54.14-.68.14-.13.27-.27.41-.54.14-.14.27-.28.27-.55.14-.27 0-.41 0-.55 0-.13-.68-1.64-.95-2.32-.28-.69-.55-.55-.69-.55h-.55c-.27 0-.54.14-.82.4-.27.28-1.1 1.1-1.1 2.75 0 1.64 1.1 3.14 1.38 3.28.13.27 2.32 3.42 5.47 4.79.82.27 1.37.55 1.78.68.82.28 1.5.28 2.05.14.69-.14 1.92-.82 2.2-1.5.27-.69.27-1.37.13-1.5a2.99 2.99 0 0 0-.69-.42z"/></svg>